<?xml version="1.0" encoding="iso-8859-1"?>
<!-- Generator: Adobe Illustrator 19.0.0, SVG Export Plug-In . SVG Version: 6.00 Build 0)  -->
<svg version="1.1" id="Capa_1" xmlns="http://www.w3.org/2000/svg" xmlns:xlink="http://www.w3.org/1999/xlink" x="0px" y="0px"
	 viewBox="0 0 480 480" style="enable-background:new 0 0 480 480;" xml:space="preserve">
<circle style="fill:#F8EED1;" cx="440" cy="272" r="24"/>
<path style="fill:#E14A3B;" d="M437.896,232.216l-17.288-71.608C400.056,75.464,324.52,16,236.936,16
	C132.76,16,48,100.76,48,204.936V336h320V220.84c0-15.384-7.64-29.656-20.44-38.184l8.872-13.312
	C373.696,180.84,384,200.104,384,220.84v12.6l32.352,6.472C422.456,235.4,429.848,232.64,437.896,232.216z M80,296H64v-16h16V296z
	 M80,264H64v-16h16V264z M80,232H64v-16h16V232z M232,48c-83.816,0-152,68.184-152,152H64c0-92.632,75.368-168,168-168V48z"/>
<path style="fill:#F8EED1;" d="M40,352c-13.232,0-24,10.768-24,24v64c0,13.232,10.768,24,24,24h336c13.232,0,24-10.768,24-24v-64
	c0-13.232-10.768-24-24-24H40z M140.896,406.32l-15.4,11.944l5.92,19.272c1.016,3.32-0.216,6.92-3.072,8.912
	c-2.832,1.992-6.648,1.904-9.424-0.192l-14.912-11.36L89.08,446.32c-1.432,1.096-3.136,1.648-4.856,1.648
	c-1.592,0-3.184-0.48-4.56-1.432c-2.856-1.984-4.104-5.584-3.088-8.912l5.928-19.368L67.096,406.32
	c-2.704-2.096-3.784-5.672-2.672-8.904C65.536,394.168,68.576,392,72,392h18.544l5.808-18.808c1.032-3.352,4.136-5.64,7.64-5.64
	s6.608,2.288,7.64,5.64L117.448,392H136c3.424,0,6.464,2.168,7.568,5.408C144.68,400.648,143.6,404.224,140.896,406.32z
	 M244.896,406.32l-15.4,11.944l5.92,19.272c1.016,3.32-0.216,6.92-3.072,8.912c-2.84,1.992-6.656,1.904-9.424-0.192l-14.912-11.36
	L193.08,446.32c-1.432,1.096-3.136,1.648-4.856,1.648c-1.592,0-3.184-0.48-4.56-1.432c-2.856-1.984-4.104-5.584-3.088-8.912
	l5.928-19.368l-15.408-11.936c-2.704-2.096-3.784-5.672-2.672-8.904c1.112-3.248,4.152-5.416,7.576-5.416h18.544l5.808-18.808
	c1.032-3.352,4.136-5.64,7.64-5.64s6.608,2.288,7.64,5.64L221.448,392H240c3.424,0,6.464,2.168,7.568,5.408
	C248.68,400.648,247.6,404.224,244.896,406.32z M348.896,406.32l-15.4,11.944l5.92,19.272c1.016,3.32-0.216,6.92-3.072,8.912
	c-2.832,1.992-6.648,1.904-9.424-0.192l-14.912-11.36L297.08,446.32c-1.432,1.096-3.136,1.648-4.856,1.648
	c-1.592,0-3.184-0.48-4.56-1.432c-2.856-1.984-4.104-5.584-3.088-8.912l5.928-19.368l-15.408-11.936
	c-2.704-2.096-3.784-5.672-2.672-8.904c1.112-3.248,4.152-5.416,7.576-5.416h18.544l5.816-18.808c1.032-3.352,4.136-5.64,7.64-5.64
	c3.504,0,6.608,2.288,7.64,5.64L325.448,392H344c3.424,0,6.464,2.168,7.568,5.408C352.68,400.648,351.6,404.224,348.896,406.32z"/>
<g>
	<path style="fill:#BFD7C2;" d="M104,402.632c-1.12,3.2-4.144,5.368-7.552,5.368h-1.056l1.28,1c2.632,2.032,3.728,5.488,2.752,8.664
		l-0.24,0.792c2.856-2.152,6.792-2.144,9.632-0.008l-0.232-0.768c-0.976-3.176,0.12-6.632,2.752-8.672l1.288-1.008h-1.072
		C108.136,408,105.112,405.832,104,402.632z"/>
	<path style="fill:#BFD7C2;" d="M208,402.632c-1.12,3.2-4.144,5.368-7.552,5.368h-1.056l1.28,1c2.632,2.032,3.728,5.488,2.752,8.664
		l-0.24,0.792c2.856-2.152,6.792-2.144,9.632-0.008l-0.232-0.768c-0.976-3.176,0.12-6.632,2.752-8.672l1.288-1.008h-1.072
		C212.136,408,209.112,405.832,208,402.632z"/>
	<path style="fill:#BFD7C2;" d="M312,402.632c-1.12,3.2-4.144,5.368-7.552,5.368h-1.056l1.28,1c2.632,2.032,3.728,5.488,2.752,8.664
		l-0.24,0.792c2.856-2.152,6.792-2.144,9.632-0.008l-0.232-0.768c-0.976-3.176,0.12-6.632,2.752-8.672l1.288-1.008h-1.072
		C316.136,408,313.112,405.832,312,402.632z"/>
</g>
<g>
	<path style="fill:#593F27;" d="M455.016,234.984l-18.856-78.128C413.864,64.496,331.944,0,236.936,0
		C123.936,0,32,91.936,32,204.936v131.872C13.768,340.528,0,356.688,0,376v64c0,22.056,17.944,40,40,40h336
		c22.056,0,40-17.944,40-40v-64c0-19.312-13.768-35.472-32-39.192V249.76l20.552,4.112C401.736,259.336,400,265.44,400,272
		c0,22.056,17.944,40,40,40s40-17.944,40-40C480,255.264,469.64,240.936,455.016,234.984z M400,376v64c0,13.232-10.768,24-24,24H40
		c-13.232,0-24-10.768-24-24v-64c0-13.232,10.768-24,24-24h336C389.232,352,400,362.768,400,376z M356.44,169.344l-8.872,13.312
		c12.8,8.528,20.44,22.808,20.44,38.184V336H48V204.936C48,100.76,132.76,16,236.936,16c87.584,0,163.12,59.464,183.672,144.6
		l17.288,71.608c-8.048,0.424-15.44,3.192-21.544,7.696L384,233.44v-12.6C384,200.104,373.696,180.84,356.44,169.344z M440,296
		c-13.232,0-24-10.768-24-24s10.768-24,24-24s24,10.768,24,24S453.232,296,440,296z"/>
	<path style="fill:#593F27;" d="M64,200h16c0-83.816,68.184-152,152-152V32C139.368,32,64,107.368,64,200z"/>
	<rect x="64" y="216" style="fill:#593F27;" width="16" height="16"/>
	<rect x="64" y="248" style="fill:#593F27;" width="16" height="16"/>
	<rect x="64" y="280" style="fill:#593F27;" width="16" height="16"/>
	<path style="fill:#593F27;" d="M136,392h-18.544l-5.808-18.808c-1.032-3.352-4.136-5.64-7.64-5.64c-3.512,0-6.608,2.288-7.64,5.64
		L90.544,392H72c-3.424,0-6.464,2.168-7.568,5.416c-1.112,3.232-0.032,6.816,2.672,8.904l15.408,11.936l-5.928,19.368
		c-1.016,3.328,0.224,6.928,3.088,8.912c1.376,0.952,2.968,1.432,4.56,1.432c1.72,0,3.432-0.552,4.856-1.648l14.928-11.424
		l14.912,11.36c2.776,2.104,6.584,2.184,9.424,0.192c2.848-1.992,4.088-5.592,3.072-8.912l-5.92-19.272l15.4-11.944
		c2.704-2.096,3.784-5.672,2.672-8.912C142.456,394.168,139.424,392,136,392z M111.328,409.008c-2.632,2.04-3.728,5.496-2.752,8.672
		l0.232,0.768c-2.848-2.144-6.776-2.152-9.632,0.008l0.24-0.792c0.976-3.176-0.12-6.632-2.752-8.664l-1.272-1h1.056
		c3.416,0,6.44-2.168,7.552-5.368c1.12,3.2,4.144,5.368,7.552,5.368h1.072L111.328,409.008z"/>
	<path style="fill:#593F27;" d="M240,392h-18.544l-5.808-18.808c-1.032-3.352-4.136-5.64-7.64-5.64c-3.512,0-6.608,2.288-7.64,5.64
		L194.544,392H176c-3.424,0-6.464,2.168-7.568,5.416c-1.112,3.232-0.032,6.816,2.672,8.904l15.408,11.936l-5.928,19.368
		c-1.016,3.328,0.224,6.928,3.088,8.912c1.376,0.952,2.968,1.432,4.56,1.432c1.72,0,3.432-0.552,4.856-1.648l14.928-11.424
		l14.912,11.36c2.768,2.104,6.576,2.184,9.424,0.192c2.856-1.992,4.088-5.592,3.072-8.912l-5.92-19.272l15.4-11.944
		c2.704-2.096,3.784-5.672,2.672-8.912C246.456,394.168,243.424,392,240,392z M215.328,409.008c-2.632,2.04-3.728,5.496-2.752,8.672
		l0.232,0.768c-2.84-2.144-6.776-2.152-9.632,0.008l0.24-0.792c0.976-3.176-0.12-6.632-2.752-8.664l-1.272-1h1.056
		c3.416,0,6.44-2.168,7.552-5.368c1.12,3.2,4.144,5.368,7.552,5.368h1.072L215.328,409.008z"/>
	<path style="fill:#593F27;" d="M344,392h-18.544l-5.816-18.808c-1.032-3.352-4.136-5.64-7.64-5.64c-3.512,0-6.608,2.288-7.64,5.64
		L298.544,392H280c-3.424,0-6.464,2.168-7.568,5.416c-1.112,3.232-0.032,6.816,2.672,8.904l15.408,11.936l-5.928,19.368
		c-1.016,3.328,0.224,6.928,3.088,8.912c1.376,0.952,2.968,1.432,4.56,1.432c1.72,0,3.432-0.552,4.856-1.648l14.928-11.424
		l14.912,11.36c2.776,2.104,6.584,2.184,9.424,0.192c2.848-1.992,4.088-5.592,3.072-8.912l-5.92-19.272l15.4-11.944
		c2.704-2.096,3.784-5.672,2.672-8.912C350.456,394.168,347.424,392,344,392z M319.328,409.008c-2.632,2.04-3.728,5.496-2.752,8.672
		l0.232,0.768c-2.84-2.144-6.776-2.152-9.632,0.008l0.24-0.792c0.976-3.176-0.12-6.632-2.752-8.664l-1.272-1h1.056
		c3.416,0,6.44-2.168,7.552-5.368c1.12,3.2,4.144,5.368,7.552,5.368h1.072L319.328,409.008z"/>
</g>
<g>
</g>
<g>
</g>
<g>
</g>
<g>
</g>
<g>
</g>
<g>
</g>
<g>
</g>
<g>
</g>
<g>
</g>
<g>
</g>
<g>
</g>
<g>
</g>
<g>
</g>
<g>
</g>
<g>
</g>
</svg>
