<?xml version="1.0" encoding="iso-8859-1"?>
<!-- Generator: Adobe Illustrator 19.0.0, SVG Export Plug-In . SVG Version: 6.00 Build 0)  -->
<svg version="1.1" id="Capa_1" xmlns="http://www.w3.org/2000/svg" xmlns:xlink="http://www.w3.org/1999/xlink" x="0px" y="0px"
	 viewBox="0 0 482.7 482.7" style="enable-background:new 0 0 482.7 482.7;" xml:space="preserve">
<path style="fill:#F8EED1;" d="M262.696,73.35c0,30.872,25.128,56,56,56c3.288,0,6.528-0.288,9.736-0.856
	c-16.184-13.472-25.736-33.408-25.736-55.144s9.552-41.672,25.736-55.144c-3.208-0.568-6.448-0.856-9.736-0.856
	C287.816,17.35,262.696,42.478,262.696,73.35z"/>
<polygon style="fill:#BFD7C2;" points="418.696,61.398 372.04,361.35 465.352,361.35 "/>
<path style="fill:#F8EED1;" d="M320.088,254.286L189.48,99.934c-4.576-5.408-11.24-8.496-18.32-8.496c-0.072,0-0.144,0-0.224,0
	c-7.16,0.072-13.848,3.288-18.376,8.848l-132,161.984c-3.656,4.488-5.192,10.112-4.336,15.832c0.864,5.72,3.992,10.64,8.816,13.848
	c8.888,5.92,20.92,3.904,27.384-4.584l7.912-10.376c2.072-2.736,5.64-3.848,8.92-2.728c3.248,1.096,5.44,4.152,5.44,7.576v23.512
	c0,4.416,3.584,8,8,8s8-3.584,8-8v-65.504c0-1.752,0.576-3.456,1.632-4.848l24-31.504c2.08-2.736,5.68-3.856,8.92-2.728
	c3.256,1.104,5.448,4.152,5.448,7.584v25c0,4.416,3.584,8,8,8s8-3.584,8-8v-67c0-1.752,0.576-3.456,1.632-4.848l16-21
	c1.504-1.952,3.816-3.12,6.272-3.152c0.032,0,0.064,0,0.096,0c2.432,0,4.728,1.104,6.248,3l111.792,139.736
	c3.344,4.184,5.648,6.088,11.264,7.016c3.856,0.632,6.696,3.976,6.696,7.888v58.36c0,4.416,3.584,8,8,8s8-3.584,8-8v-75.256
	c0-2.096,0.12-4.272,0.24-6.496C323.392,263.462,323.424,258.23,320.088,254.286C320.088,254.294,320.088,254.294,320.088,254.286z"
	/>
<path style="fill:#BFD7C2;" d="M170.696,337.35c-17.648,0-32,14.352-32,32v96h64v-96C202.696,351.702,188.344,337.35,170.696,337.35
	z"/>
<path style="fill:#E14A3B;" d="M290.696,301.174c-6.376-2.328-10.536-6.184-14.464-11.096L170.848,158.35l-8.152,10.704v64.296
	c0,13.232-10.768,24-24,24s-24-10.768-24-24v-1.296l-8,10.496v62.8c0,13.232-10.768,24-24,24s-24-10.768-24-24v-1.728
	c-4.72,3.696-10.24,6.064-16,7.096v90.632h16v16h-16v48h80v-96c0-26.472,21.528-48,48-48s48,21.528,48,48v64h24v16h-24v16h80v-48
	h-24v-16h24v-30.24c-4.872-4.392-8-10.688-8-17.76V301.174z M58.696,369.35h32v16h-32V369.35z M90.696,449.35h-32v-16h32V449.35z
	 M106.696,417.35h-32v-16h32V417.35z M162.696,281.35v-16h32v16H162.696z M218.696,313.35h-32v-16h32V313.35z M242.696,281.35h-32
	v-16h32V281.35z"/>
<g>
	<path style="fill:#593F27;" d="M201.696,89.606c-7.704-9.12-18.832-14.416-30.912-14.168c-11.928,0.112-23.096,5.488-30.632,14.736
		l-132,161.992c-6.448,7.912-9.264,18.24-7.752,28.328c1.52,10.096,7.264,19.128,15.76,24.784c3.312,2.208,6.872,3.8,10.528,4.8
		V465.35H2.696v16h32h8h88h80h88h8h24v-16h-16v-88c13.232,0,24-10.768,24-24v-75.256c0-1.816,0.112-3.688,0.216-5.6
		c0.48-8.664,1.08-19.456-6.608-28.528L201.696,89.606z M202.696,465.35h-64v-96c0-17.648,14.352-32,32-32s32,14.352,32,32V465.35z
		 M298.696,401.35h-24v16h24v48h-80v-16h24v-16h-24v-64c0-26.472-21.528-48-48-48s-48,21.528-48,48v96h-80v-48h16v-16h-16v-90.632
		c5.76-1.032,11.28-3.4,16-7.096v1.728c0,13.232,10.768,24,24,24s24-10.768,24-24v-62.8l8-10.496v1.296c0,13.232,10.768,24,24,24
		s24-10.768,24-24v-64.296l8.152-10.704l105.384,131.728c3.92,4.904,8.088,8.768,14.464,11.096v52.176c0,7.064,3.128,13.36,8,17.76
		V401.35z M322.936,271.598c-0.128,2.216-0.24,4.4-0.24,6.496v75.256c0,4.416-3.584,8-8,8s-8-3.584-8-8v-58.36
		c0-3.912-2.84-7.256-6.696-7.888c-5.616-0.928-7.92-2.832-11.264-7.016L176.944,140.35c-1.52-1.896-3.816-3-6.248-3
		c-0.032,0-0.064,0-0.096,0c-2.464,0.032-4.776,1.192-6.272,3.152l-16,21c-1.056,1.392-1.632,3.096-1.632,4.848v67
		c0,4.416-3.584,8-8,8s-8-3.584-8-8v-25c0-3.432-2.184-6.48-5.448-7.576c-3.24-1.128-6.84-0.008-8.92,2.728l-24,31.504
		c-1.056,1.392-1.632,3.096-1.632,4.84v65.504c0,4.416-3.584,8-8,8s-8-3.584-8-8v-23.504c0-3.432-2.184-6.488-5.44-7.576
		c-3.28-1.128-6.848-0.008-8.92,2.728l-7.912,10.376c-6.464,8.496-18.488,10.504-27.384,4.584
		c-4.824-3.208-7.944-8.128-8.816-13.848c-0.856-5.728,0.68-11.352,4.336-15.832l131.992-161.992
		c4.52-5.552,11.216-8.776,18.376-8.848c0.08,0,0.152,0,0.224,0c7.08,0,13.744,3.096,18.32,8.496L320.08,254.286
		c0,0.008,0,0.008,0,0.008C323.424,258.23,323.392,263.462,322.936,271.598z"/>
	<rect x="58.696" y="433.35" style="fill:#593F27;" width="32" height="16"/>
	<rect x="74.696" y="401.35" style="fill:#593F27;" width="32" height="16"/>
	<rect x="58.696" y="369.35" style="fill:#593F27;" width="32" height="16"/>
	<rect x="186.696" y="297.35" style="fill:#593F27;" width="32" height="16"/>
	<rect x="210.696" y="265.35" style="fill:#593F27;" width="32" height="16"/>
	<rect x="162.696" y="265.35" style="fill:#593F27;" width="32" height="16"/>
	<path style="fill:#593F27;" d="M426.696,377.35h48c2.336,0,4.552-1.024,6.08-2.8c1.512-1.776,2.184-4.128,1.832-6.432l-56-360
		c-0.616-3.896-3.968-6.768-7.912-6.768s-7.296,2.872-7.904,6.776l-56,360c-0.36,2.304,0.312,4.656,1.832,6.432
		c1.52,1.768,3.736,2.792,6.072,2.792h48v88h-32v16h32h16h56v-16h-56V377.35z M372.04,361.35l46.656-299.952l46.656,299.952H372.04z
		"/>
	<rect x="346.696" y="465.35" style="fill:#593F27;" width="16" height="16"/>
	<path style="fill:#593F27;" d="M318.696,145.35c10.944,0,21.544-2.464,31.504-7.328c2.752-1.336,4.496-4.136,4.496-7.192
		s-1.744-5.84-4.496-7.184c-19.432-9.488-31.504-28.768-31.504-50.296s12.072-40.808,31.504-50.296
		c2.752-1.344,4.496-4.136,4.496-7.184c0-3.056-1.744-5.856-4.496-7.192c-9.96-4.864-20.56-7.328-31.504-7.328
		c-39.704,0-72,32.296-72,72S278.992,145.35,318.696,145.35z M318.696,17.35c3.288,0,6.528,0.288,9.736,0.856
		c-16.184,13.472-25.736,33.408-25.736,55.144s9.552,41.672,25.736,55.144c-3.208,0.568-6.448,0.856-9.736,0.856
		c-30.872,0-56-25.128-56-56S287.816,17.35,318.696,17.35z"/>
	<rect x="2.696" y="1.35" style="fill:#593F27;" width="16" height="16"/>
	<rect x="42.696" y="33.35" style="fill:#593F27;" width="16" height="16"/>
	<rect x="66.696" y="81.35" style="fill:#593F27;" width="16" height="16"/>
	<rect x="34.696" y="129.35" style="fill:#593F27;" width="16" height="16"/>
	<rect x="2.696" y="193.35" style="fill:#593F27;" width="16" height="16"/>
	<rect x="90.696" y="17.35" style="fill:#593F27;" width="16" height="16"/>
	<rect x="130.696" y="49.35" style="fill:#593F27;" width="16" height="16"/>
	<rect x="186.696" y="17.35" style="fill:#593F27;" width="16" height="16"/>
	<rect x="354.696" y="57.35" style="fill:#593F27;" width="16" height="16"/>
	<rect x="338.696" y="169.35" style="fill:#593F27;" width="16" height="16"/>
	<rect x="466.696" y="1.35" style="fill:#593F27;" width="16" height="16"/>
	<rect x="450.696" y="57.35" style="fill:#593F27;" width="16" height="16"/>
	<rect x="10.696" y="73.35" style="fill:#593F27;" width="16" height="16"/>
</g>
<g>
</g>
<g>
</g>
<g>
</g>
<g>
</g>
<g>
</g>
<g>
</g>
<g>
</g>
<g>
</g>
<g>
</g>
<g>
</g>
<g>
</g>
<g>
</g>
<g>
</g>
<g>
</g>
<g>
</g>
</svg>
