<?xml version="1.0" encoding="iso-8859-1"?>
<!-- Generator: Adobe Illustrator 19.0.0, SVG Export Plug-In . SVG Version: 6.00 Build 0)  -->
<svg version="1.1" id="Capa_1" xmlns="http://www.w3.org/2000/svg" xmlns:xlink="http://www.w3.org/1999/xlink" x="0px" y="0px"
	 viewBox="0 0 476.448 476.448" style="enable-background:new 0 0 476.448 476.448;" xml:space="preserve">
<polygon style="fill:#E14A3B;" points="93.552,412.168 150.952,412.168 166.968,396.168 109.568,396.168 "/>
<path style="fill:#F8EED1;" d="M79.88,454.512c7.904,7.904,20.784,7.904,28.688,0l26.368-26.344H77.968
	C72.112,436.104,72.696,447.328,79.88,454.512z"/>
<polygon style="fill:#E14A3B;" points="173.632,332.168 231.032,332.168 247.048,316.168 189.64,316.168 "/>
<g>
	<polygon style="fill:#F8EED1;" points="125.584,380.168 182.984,380.168 215.016,348.168 157.608,348.168 	"/>
	<path style="fill:#F8EED1;" d="M378.224,460.168c4.408,0,8-3.592,8-8v-24v-4.688l-36.688,36.688H378.224z"/>
	<path style="fill:#F8EED1;" d="M298.224,380.168c-4.408,0-8,3.592-8,8v24v4.688l36.688-36.688H298.224z"/>
</g>
<path style="fill:#E14A3B;" d="M378.224,380.168h-28.688l-59.312,59.312v12.688c0,4.408,3.592,8,8,8h28.688l59.312-59.312v-12.688
	C386.224,383.76,382.632,380.168,378.224,380.168z"/>
<g>
	<polygon style="fill:#F8EED1;" points="402.224,423.64 426.224,438.04 426.224,402.296 402.224,416.696 	"/>
	<polygon style="fill:#F8EED1;" points="285.736,220.168 343.144,220.168 375.176,188.168 317.768,188.168 	"/>
</g>
<path style="fill:#E14A3B;" d="M276.848,94.512l7.56-7.56L245,70.064c-1.76,3.048-2.776,6.488-2.776,10.104
	c0,5.416,2.112,10.512,5.944,14.344C255.832,102.176,269.184,102.176,276.848,94.512z"/>
<path style="fill:#F8EED1;" d="M300.848,70.512c1.4-1.4,2.976-2.488,4.496-3.672l-13.312-39.928
	c-7.2,3.968-13.896,8.936-19.872,14.912L256.432,57.56l40.16,17.208L300.848,70.512z"/>
<path style="fill:#E14A3B;" d="M330.224,57V16.216c-8.072,0.384-15.944,1.824-23.448,4.304l12.88,38.648
	C323.112,58.032,326.632,57.32,330.224,57z"/>
<g>
	<path style="fill:#F8EED1;" d="M146.224,103.352c4.728-7.848,11.336-14.448,19.184-19.184
		c-7.848-4.728-14.448-11.336-19.184-19.184c-4.728,7.848-11.336,14.448-19.176,19.184
		C134.888,88.896,141.496,95.504,146.224,103.352z"/>
	<polygon style="fill:#F8EED1;" points="250.224,438.04 274.224,423.64 274.224,416.696 250.224,402.296 	"/>
</g>
<g>
	<polygon style="fill:#E14A3B;" points="253.704,252.168 311.112,252.168 327.128,236.168 269.72,236.168 	"/>
	<path style="fill:#E14A3B;" d="M333.784,172.168h57.4l5.664-5.664c3.256-3.248,6.096-6.736,8.736-10.336h-55.776L333.784,172.168z"
		/>
</g>
<path style="fill:#F8EED1;" d="M368.168,137.824l-2.352,2.344h49.072c7.312-16.376,9.432-34.504,6.272-51.896l-39.728,22.704
	C380.024,120.8,375.704,130.28,368.168,137.824z"/>
<path style="fill:#E14A3B;" d="M380.608,93.024l36.08-20.616c-2.28-5.92-5.168-11.648-8.768-17.056l-33.688,22.592
	C377.312,82.616,379.344,87.744,380.608,93.024z"/>
<g>
	<path style="fill:#F8EED1;" d="M397.792,42.872c-0.328-0.344-0.608-0.712-0.944-1.048c-13.848-13.856-31.52-22.432-50.624-24.96
		v41.368c5.952,1.504,11.608,4.176,16.72,8.008L397.792,42.872z"/>
	<path style="fill:#F8EED1;" d="M90.224,215.344c4.728-7.848,11.336-14.448,19.184-19.176c-7.848-4.728-14.448-11.336-19.184-19.176
		c-4.728,7.848-11.336,14.448-19.184,19.176C78.888,200.896,85.496,207.504,90.224,215.344z"/>
	<polygon style="fill:#F8EED1;" points="205.656,300.168 263.064,300.168 295.096,268.168 237.688,268.168 	"/>
</g>
<g>
	<path style="fill:#593F27;" d="M408.168,30.512C388.496,10.832,362.336,0,334.512,0s-53.984,10.832-73.656,30.512l-24,24
		c-14.152,14.144-14.152,37.168,0,51.312c6.848,6.856,15.96,10.632,25.656,10.632c9.688,0,18.808-3.776,25.656-10.632l24-24
		c12.32-12.32,32.368-12.32,44.688,0c12.32,12.32,12.32,32.368,0,44.68l-288.288,288l0,0c-14.152,14.152-14.152,37.168,0,51.312
		c6.848,6.856,15.968,10.632,25.656,10.632s18.808-3.776,25.656-10.624l288.288-288C448.776,137.208,448.776,71.128,408.168,30.512z
		 M380.608,93.024c-1.264-5.28-3.288-10.408-6.376-15.08l33.688-22.592c3.6,5.408,6.496,11.136,8.768,17.056L380.608,93.024z
		 M330.224,57c-3.592,0.32-7.112,1.032-10.568,2.168l-12.88-38.648c7.512-2.48,15.376-3.92,23.448-4.304V57z M272.168,41.824
		c5.976-5.976,12.672-10.944,19.872-14.912l13.312,39.928c-1.52,1.184-3.096,2.272-4.496,3.672l-4.256,4.256L256.44,57.56
		L272.168,41.824z M248.168,94.512c-3.832-3.832-5.944-8.928-5.944-14.344c0-3.616,1.016-7.056,2.784-10.104l39.408,16.888
		l-7.56,7.56C269.184,102.176,255.832,102.176,248.168,94.512z M346.224,58.232V16.864c19.104,2.528,36.776,11.104,50.632,24.96
		c0.336,0.336,0.616,0.704,0.944,1.048l-34.856,23.376C357.832,62.416,352.176,59.744,346.224,58.232z M368.168,137.824
		c7.544-7.544,11.856-17.024,13.264-26.848l39.728-22.704c3.16,17.392,1.04,35.52-6.272,51.896h-49.072L368.168,137.824z
		 M125.584,380.168l32.032-32h57.4l-32.032,32H125.584z M166.968,396.168l-16.016,16h-57.4l16.016-16H166.968z M173.632,332.168
		l16.016-16h57.408l-16.016,16H173.632z M205.656,300.168l32.032-32h57.4l-32.032,32H205.656z M253.704,252.168l16.016-16h57.4
		l-16.016,16H253.704z M285.736,220.168l32.032-32h57.4l-32.032,32H285.736z M108.568,454.512c-7.904,7.904-20.784,7.904-28.688,0
		c-7.184-7.184-7.768-18.408-1.912-26.344h56.968L108.568,454.512z M391.192,172.168h-57.4l16.016-16h55.776
		c-2.632,3.6-5.472,7.088-8.728,10.336L391.192,172.168z"/>
	<path style="fill:#593F27;" d="M98.224,92.168c22.056,0,40,17.944,40,40c0,4.416,3.584,8,8,8s8-3.584,8-8c0-22.056,17.944-40,40-40
		c4.416,0,8-3.584,8-8s-3.584-8-8-8c-22.056,0-40-17.944-40-40c0-4.416-3.584-8-8-8s-8,3.584-8,8c0,22.056-17.944,40-40,40
		c-4.416,0-8,3.584-8,8S93.808,92.168,98.224,92.168z M146.224,64.984c4.728,7.848,11.336,14.448,19.184,19.184
		c-7.848,4.728-14.448,11.336-19.184,19.184c-4.728-7.848-11.336-14.448-19.176-19.184C134.888,79.44,141.496,72.832,146.224,64.984
		z"/>
	<path style="fill:#593F27;" d="M82.224,244.168c0,4.416,3.584,8,8,8s8-3.584,8-8c0-22.056,17.944-40,40-40c4.416,0,8-3.584,8-8
		s-3.584-8-8-8c-22.056,0-40-17.944-40-40c0-4.416-3.584-8-8-8s-8,3.584-8,8c0,22.056-17.944,40-40,40c-4.416,0-8,3.584-8,8
		s3.584,8,8,8C64.28,204.168,82.224,222.112,82.224,244.168z M90.224,176.992c4.728,7.848,11.336,14.448,19.184,19.176
		c-7.848,4.728-14.448,11.336-19.184,19.176c-4.728-7.848-11.336-14.448-19.184-19.176C78.888,191.44,85.496,184.832,90.224,176.992
		z"/>
	<path style="fill:#593F27;" d="M438.168,381.208c-2.504-1.424-5.584-1.384-8.056,0.104l-27.888,16.728v-9.872
		c0-13.232-10.768-24-24-24h-80c-13.232,0-24,10.768-24,24v9.872l-27.88-16.728c-2.472-1.488-5.552-1.528-8.056-0.104
		c-2.512,1.416-4.064,4.08-4.064,6.96v64c0,2.88,1.552,5.544,4.056,6.96c1.224,0.696,2.584,1.04,3.944,1.04
		c1.424,0,2.848-0.376,4.12-1.144l27.88-16.728v9.872c0,13.232,10.768,24,24,24h80c13.232,0,24-10.768,24-24v-9.872l27.88,16.728
		c1.264,0.768,2.696,1.144,4.12,1.144c1.36,0,2.72-0.344,3.944-1.04c2.504-1.416,4.056-4.08,4.056-6.96v-64
		C442.224,385.288,440.672,382.624,438.168,381.208z M290.224,388.168c0-4.408,3.592-8,8-8h28.688l-36.688,36.688v-4.688V388.168z
		 M250.224,438.04v-35.744l24,14.4v6.936L250.224,438.04z M290.224,452.168V439.48l59.312-59.312h28.688c4.408,0,8,3.592,8,8v12.688
		l-59.312,59.312h-28.688C293.816,460.168,290.224,456.576,290.224,452.168z M386.224,452.168c0,4.408-3.592,8-8,8h-28.688
		l36.688-36.688v4.688V452.168z M426.224,438.04l-24-14.4v-6.936l24-14.4V438.04z"/>
	<rect x="370.224" y="284.168" style="fill:#593F27;" width="16" height="16"/>
	<rect x="370.224" y="316.168" style="fill:#593F27;" width="16" height="16"/>
	<rect x="386.224" y="300.168" style="fill:#593F27;" width="16" height="16"/>
	<rect x="354.224" y="300.168" style="fill:#593F27;" width="16" height="16"/>
</g>
<g>
</g>
<g>
</g>
<g>
</g>
<g>
</g>
<g>
</g>
<g>
</g>
<g>
</g>
<g>
</g>
<g>
</g>
<g>
</g>
<g>
</g>
<g>
</g>
<g>
</g>
<g>
</g>
<g>
</g>
</svg>
