<?xml version="1.0" encoding="iso-8859-1"?>
<!-- Generator: Adobe Illustrator 19.0.0, SVG Export Plug-In . SVG Version: 6.00 Build 0)  -->
<svg version="1.1" id="Capa_1" xmlns="http://www.w3.org/2000/svg" xmlns:xlink="http://www.w3.org/1999/xlink" x="0px" y="0px"
	 viewBox="0 0 480 480" style="enable-background:new 0 0 480 480;" xml:space="preserve">
<path style="fill:#E14A3B;" d="M24.264,448h-6.896c3.304,9.312,12.2,16,22.632,16h400c10.432,0,19.328-6.688,22.632-16H290.408
	H24.264z"/>
<g>
	<path style="fill:#F8EED1;" d="M288.888,432C314.368,421.856,344,402.616,344,368c0-17.192-7.44-35.616-20.936-52.584
		c-10.264,10.52-23.248,20.624-38.36,29.408c-22.256,12.928-45.736,20.952-66.104,22.584c-2.56,0.2-5.048,0.312-7.448,0.312
		c-18.648,0-32.368-6.144-39.048-17.64l13.84-8.032c4.2,7.248,15.672,10.688,31.368,9.416c18.032-1.448,39.112-8.712,59.352-20.472
		c16.808-9.768,30.096-20.888,39.576-31.704c0.024-0.024,0.032-0.064,0.056-0.088c1.784-2.032,3.432-4.056,4.944-6.056
		c0.048-0.064,0.096-0.128,0.144-0.2c1.408-1.872,2.68-3.728,3.848-5.552c0.12-0.192,0.248-0.376,0.368-0.568
		c1.144-1.824,2.152-3.616,3.04-5.376c0.048-0.096,0.112-0.2,0.16-0.296c0.888-1.784,1.632-3.528,2.256-5.224
		c0.184-0.504,0.296-0.984,0.456-1.48c0.36-1.104,0.68-2.2,0.92-3.256c0.152-0.664,0.24-1.304,0.336-1.952
		c0.136-0.864,0.232-1.704,0.272-2.528c0.032-0.616,0.048-1.224,0.032-1.808c-0.032-0.856-0.128-1.672-0.272-2.472
		c-0.08-0.456-0.128-0.936-0.24-1.376c-0.32-1.208-0.736-2.352-1.344-3.392c-7.552-13.016-40.664-14.616-80.976,5.488
		c-1.832,0.904-3.936,1.088-5.88,0.496c-16.576-5-34.672-7.648-52.36-7.648c-85.6,0-152,60.208-152,112
		c0,13.624,3.84,25.072,11.752,35.008c1.76,2.208,2.224,5.184,1.216,7.824c-1.008,2.64-3.328,4.552-6.112,5.04
		c-8.16,1.416-15.992,9.048-20.656,14.768c0.408,0.44,0.848,0.888,1.304,1.36H288.888z M280,400h16v16h-16V400z M248,400h16v16h-16
		V400z M216,400h16v16h-16V400z"/>
	<path style="fill:#F8EED1;" d="M136,55.752c-2.336,3.144-5.112,5.912-8.248,8.248c3.136,2.336,5.912,5.104,8.248,8.248
		c2.336-3.136,5.104-5.912,8.248-8.248C141.104,61.664,138.336,58.896,136,55.752z"/>
</g>
<path style="fill:#E14A3B;" d="M111.752,196.824l-7.4-3.696c-10.024-5.016-21.736-4.568-31.352,1.2
	c-7.704,4.624-16.352,6.936-25,6.936s-17.296-2.312-25.008-6.944L16,190.128V192c0,26.472,21.528,48,48,48
	C88.84,240,109.328,221.032,111.752,196.824z"/>
<path style="fill:#BFD7C2;" d="M245.952,247.448c14.664-7.024,28.96-11.6,42.048-13.832V144c0-17.648-14.352-32-32-32
	c-4.424,0-8-3.584-8-8V16h-32v88c0,4.416-3.576,8-8,8c-17.648,0-32,14.352-32,32v96.696c5.256-0.416,10.576-0.696,16-0.696
	C210.152,240,228.736,242.568,245.952,247.448z M192,136h16v16h-16V136z M192,168h16v56h-16V168z"/>
<g>
	<path style="fill:#F8EED1;" d="M64.776,180.608c14.32-8.592,31.8-9.264,46.744-1.792l0.48,0.24V128H16v43.472l15.224,9.136
		C41.576,186.816,54.44,186.808,64.776,180.608z"/>
	<path style="fill:#F8EED1;" d="M338.208,241.672c2.744,2.264,5.072,4.896,6.848,7.96v0.008h0.008
		c0.96,1.648,1.72,3.384,2.336,5.168c0.024,0.072,0.072,0.136,0.096,0.208l29.072-29.072c3.128-3.128,8.184-3.128,11.312,0
		c6.048,6.04,16.576,6.04,22.624,0c3.024-3.024,4.688-7.04,4.688-11.312s-1.664-8.296-4.688-11.312
		c-3.512-3.512-7.64-4.432-10.488-4.576c-4.088-0.216-7.352-3.488-7.568-7.576c-0.144-2.84-1.056-6.96-4.568-10.472
		c-6.048-6.056-16.576-6.048-22.624,0c-3.024,3.024-4.688,7.04-4.688,11.312s1.664,8.288,4.688,11.312
		c1.504,1.504,2.344,3.536,2.344,5.656c0,2.12-0.84,4.16-2.344,5.656L338.208,241.672z"/>
</g>
<g>
	<path style="fill:#BFD7C2;" d="M360,368c0,20.432-8.344,38.624-24,53.552V432h112v-40h-56c-4.424,0-8-3.584-8-8V272
		c0-4.416,3.576-8,8-8h56V144c0-17.648-14.352-32-32-32c-4.424,0-8-3.584-8-8V16h-32v88c0,4.416-3.576,8-8,8
		c-17.648,0-32,14.352-32,32v77.256l12.992-12.992c-2.88-4.872-4.424-10.448-4.424-16.264c0-8.544,3.328-16.584,9.376-22.624
		c6.04-6.048,14.072-9.376,22.624-9.376c8.544,0,16.576,3.328,22.624,9.376c3.984,3.984,6.808,8.952,8.224,14.4
		c5.448,1.424,10.416,4.24,14.4,8.224c6.048,6.04,9.376,14.08,9.376,22.632c0,8.544-3.328,16.584-9.376,22.624
		c-10.136,10.16-26.832,12.08-38.88,4.952l-35.464,35.456l-0.176-0.176c-2.32,8.144-6.768,16.784-13.52,25.632
		C350.728,323.52,360,346.368,360,368z"/>
	<rect x="400" y="280" style="fill:#BFD7C2;" width="48" height="96"/>
</g>
<g>
	<path style="fill:#593F27;" d="M472,432h-8v-48V272V144c0-23.744-17.328-43.512-40-47.336V8c0-4.416-3.576-8-8-8h-48
		c-4.424,0-8,3.584-8,8v88.664c-22.672,3.816-40,23.592-40,47.336v89.424c-4.88-1.024-10.264-1.44-16-1.344V144
		c0-23.744-17.328-43.512-40-47.336V8c0-4.416-3.576-8-8-8h-48c-4.424,0-8,3.584-8,8v88.664c-22.672,3.816-40,23.592-40,47.336
		v98.648c-34.632,5.592-64.904,19.832-88,38.648V255.44c31.52-3.96,56-30.872,56-63.448v-72c0-4.416-3.576-8-8-8H8
		c-4.424,0-8,3.584-8,8v72c0,32.576,24.48,59.488,56,63.448V296h0.44C35.976,317.872,24,343.496,24,368
		c0,13.248,3.064,25.304,9.128,35.96c-13.616,7.16-22.672,20.912-23.872,22.816c-1.024,1.584-1.344,3.432-1.128,5.224H8
		c-4.424,0-8,3.584-8,8c0,22.056,17.944,40,40,40h400c22.056,0,40-17.944,40-40C480,435.584,476.424,432,472,432z M448,376h-48v-96
		h48V376z M368,112c4.424,0,8-3.584,8-8V16h32v88c0,4.416,3.576,8,8,8c17.648,0,32,14.352,32,32v120h-56c-4.424,0-8,3.584-8,8v112
		c0,4.416,3.576,8,8,8h56v40H336v-10.448c15.656-14.928,24-33.112,24-53.552c0-21.632-9.272-44.48-26.216-64.888
		c6.752-8.848,11.2-17.488,13.52-25.632l0.176,0.176l35.464-35.456c12.048,7.128,28.744,5.208,38.88-4.952
		c6.048-6.04,9.376-14.08,9.376-22.624c0-8.544-3.328-16.584-9.376-22.632c-3.984-3.984-8.952-6.808-14.4-8.224
		c-1.424-5.448-4.24-10.416-8.224-14.4c-6.056-6.04-14.088-9.368-22.632-9.368c-8.552,0-16.584,3.328-22.624,9.376
		c-6.048,6.04-9.376,14.08-9.376,22.624c0,5.816,1.536,11.384,4.424,16.264L336,221.256V144C336,126.352,350.352,112,368,112z
		 M345.064,249.632c-1.776-3.064-4.112-5.696-6.848-7.96l27.048-27.048c1.504-1.504,2.344-3.536,2.344-5.656
		c0-2.12-0.84-4.152-2.344-5.656c-3.024-3.024-4.688-7.04-4.688-11.312s1.664-8.288,4.688-11.312c6.048-6.048,16.576-6.048,22.624,0
		c3.512,3.512,4.424,7.632,4.568,10.472c0.216,4.088,3.488,7.36,7.568,7.576c2.848,0.152,6.968,1.064,10.488,4.576
		c3.024,3.024,4.688,7.04,4.688,11.312s-1.664,8.288-4.688,11.312c-6.048,6.04-16.576,6.04-22.624,0
		c-3.128-3.128-8.192-3.128-11.312,0l-29.072,29.072c-0.024-0.072-0.072-0.136-0.096-0.208
		C346.792,253.016,346.032,251.288,345.064,249.632L345.064,249.632L345.064,249.632z M176,144c0-17.648,14.352-32,32-32
		c4.424,0,8-3.584,8-8V16h32v88c0,4.416,3.576,8,8,8c17.648,0,32,14.352,32,32v89.624c-13.088,2.232-27.384,6.808-42.048,13.832
		C228.736,242.568,210.152,240,192,240c-5.424,0-10.744,0.28-16,0.696V144z M112,128v51.056l-0.488-0.24
		c-14.944-7.472-32.424-6.8-46.744,1.792c-10.336,6.2-23.192,6.208-33.544,0L16,171.472V128H112z M16,192v-1.872l6.992,4.192
		c7.712,4.632,16.36,6.944,25.008,6.944s17.296-2.312,25.008-6.944c9.616-5.768,21.328-6.216,31.352-1.2l7.4,3.696
		C109.328,221.032,88.84,240,64,240C37.528,240,16,218.472,16,192z M26.2,430.648c4.664-5.72,12.496-13.36,20.656-14.768
		c2.784-0.488,5.104-2.4,6.112-5.04c1.008-2.64,0.536-5.616-1.216-7.824C43.84,393.072,40,381.624,40,368c0-51.792,66.4-112,152-112
		c17.688,0,35.792,2.648,52.368,7.656c1.944,0.592,4.056,0.408,5.88-0.496c40.312-20.104,73.424-18.504,80.976-5.488
		c0.6,1.04,1.024,2.184,1.344,3.392c0.112,0.44,0.168,0.912,0.24,1.376c0.136,0.8,0.24,1.616,0.272,2.472
		c0.016,0.592,0,1.192-0.032,1.808c-0.04,0.824-0.136,1.664-0.272,2.528c-0.096,0.64-0.192,1.28-0.336,1.952
		c-0.232,1.056-0.56,2.144-0.92,3.256c-0.16,0.496-0.272,0.976-0.456,1.48c-0.624,1.696-1.36,3.44-2.256,5.224
		c-0.048,0.096-0.112,0.2-0.16,0.296c-0.888,1.752-1.904,3.552-3.04,5.376c-0.12,0.192-0.248,0.376-0.368,0.568
		c-1.168,1.824-2.44,3.68-3.848,5.552c-0.048,0.064-0.096,0.128-0.144,0.2c-1.512,2-3.16,4.024-4.944,6.056
		c-0.024,0.024-0.032,0.064-0.056,0.088c-9.488,10.816-22.768,21.936-39.576,31.704c-20.24,11.752-41.32,19.024-59.352,20.472
		c-15.696,1.28-27.168-2.168-31.368-9.416l-13.84,8.032c6.68,11.496,20.4,17.64,39.048,17.64c2.4,0,4.88-0.104,7.448-0.312
		c20.368-1.632,43.848-9.656,66.104-22.584c15.12-8.784,28.096-18.888,38.36-29.408C336.56,332.384,344,350.808,344,368
		c0,34.616-29.632,53.856-55.112,64H27.504C27.048,431.528,26.608,431.08,26.2,430.648z M440,464H40
		c-10.432,0-19.328-6.688-22.632-16h6.896h266.144h172.224C459.328,457.312,450.432,464,440,464z"/>
	<rect x="216" y="400" style="fill:#593F27;" width="16" height="16"/>
	<rect x="248" y="400" style="fill:#593F27;" width="16" height="16"/>
	<rect x="280" y="400" style="fill:#593F27;" width="16" height="16"/>
	<rect x="192" y="168" style="fill:#593F27;" width="16" height="56"/>
	<rect x="192" y="136" style="fill:#593F27;" width="16" height="16"/>
	<path style="fill:#593F27;" d="M128,96h16c0-13.232,10.768-24,24-24V56c-13.232,0-24-10.768-24-24h-16c0,13.232-10.768,24-24,24v16
		C117.232,72,128,82.768,128,96z M136,55.752c2.336,3.136,5.104,5.912,8.248,8.248c-3.136,2.336-5.912,5.104-8.248,8.248
		c-2.336-3.136-5.104-5.912-8.248-8.248C130.888,61.664,133.664,58.896,136,55.752z"/>
</g>
<g>
</g>
<g>
</g>
<g>
</g>
<g>
</g>
<g>
</g>
<g>
</g>
<g>
</g>
<g>
</g>
<g>
</g>
<g>
</g>
<g>
</g>
<g>
</g>
<g>
</g>
<g>
</g>
<g>
</g>
</svg>
