<?xml version="1.0" encoding="iso-8859-1"?>
<!-- Generator: Adobe Illustrator 19.0.0, SVG Export Plug-In . SVG Version: 6.00 Build 0)  -->
<svg version="1.1" id="Capa_1" xmlns="http://www.w3.org/2000/svg" xmlns:xlink="http://www.w3.org/1999/xlink" x="0px" y="0px"
	 viewBox="0 0 480 480" style="enable-background:new 0 0 480 480;" xml:space="preserve">
<path style="fill:#F8EED1;" d="M16,440c0,13.232,10.768,24,24,24h168v-48h-72c-3.152,0-6.008-1.848-7.296-4.728
	c-1.296-2.864-0.776-6.232,1.312-8.584L182.184,344H152c-3.144,0-5.984-1.832-7.288-4.696c-1.296-2.856-0.8-6.208,1.264-8.568
	L190.368,280H176c-3.152,0-6.008-1.848-7.296-4.728c-1.296-2.864-0.776-6.232,1.312-8.584l64-72c3.04-3.424,8.92-3.424,11.96,0
	l64,72c2.088,2.352,2.608,5.72,1.32,8.584c-1.288,2.88-4.152,4.728-7.296,4.728h-14.368l44.392,50.736
	c2.064,2.36,2.56,5.712,1.264,8.568C333.984,342.168,331.136,344,328,344h-30.184l52.168,58.688c2.088,2.352,2.608,5.72,1.32,8.584
	c-1.296,2.88-4.16,4.728-7.304,4.728h-72v48h168c13.232,0,24-10.768,24-24V176H16V440z M176,432h16v16h-16V432z M144,432h16v16h-16
	V432z M432,360h-16v16h-16v-16h-16v-16h16v-16h16v16h16V360z M376,208h16v-16h16v16h16v16h-16v16h-16v-16h-16V208z M328,248h16v-16
	h16v16h16v16h-16v16h-16v-16h-16V248z M128,448h-16v-16h16V448z M88,216h16v-16h16v16h16v16h-16v16h-16v-16H88V216z M48,320h16v-16
	h16v16h16v16H80v16H64v-16H48V320z"/>
<path style="fill:#E14A3B;" d="M440,48h-56v24c17.648,0,32,14.352,32,32s-14.352,32-32,32h-48c-17.648,0-32-14.352-32-32
	s14.352-32,32-32V48H144v24c17.648,0,32,14.352,32,32s-14.352,32-32,32H96c-17.648,0-32-14.352-32-32s14.352-32,32-32V48H40
	c-13.232,0-24,10.768-24,24v88h448V72C464,58.768,453.232,48,440,48z"/>
<g>
	<rect x="224" y="416" style="fill:#F8EED1;" width="32" height="48"/>
	<path style="fill:#F8EED1;" d="M120,96c4.408,0,8-3.584,8-8V24c0-4.416-3.592-8-8-8s-8,3.584-8,8v64C112,92.416,115.592,96,120,96z
		"/>
	<path style="fill:#F8EED1;" d="M360,96c4.408,0,8-3.584,8-8V24c0-4.416-3.592-8-8-8s-8,3.584-8,8v64C352,92.416,355.592,96,360,96z
		"/>
</g>
<path style="fill:#BFD7C2;" d="M326.184,400l-52.168-58.688c-2.088-2.352-2.608-5.72-1.32-8.584c1.296-2.88,4.152-4.728,7.304-4.728
	h30.368l-44.392-50.736c-2.064-2.36-2.56-5.712-1.264-8.568c1.296-2.864,4.144-4.696,7.288-4.696h14.184L240,212.04L193.816,264H208
	c3.144,0,5.992,1.832,7.288,4.696c1.296,2.856,0.8,6.208-1.264,8.568L169.624,328H200c3.152,0,6.008,1.848,7.296,4.728
	c1.296,2.864,0.776,6.232-1.312,8.584L153.816,400H208h8h48h8H326.184z M232,248h16v16h-16V248z M208,304h16v16h-16V304z M216,384
	h-16v-16h16V384z M240,352h-16v-16h16V352z M248,296h16v16h-16V296z M256,376v-16h16v16H256z"/>
<g>
	<path style="fill:#593F27;" d="M440,32h-56v-8c0-13.232-10.768-24-24-24s-24,10.768-24,24v8H144v-8c0-13.232-10.768-24-24-24
		S96,10.768,96,24v8H40C17.944,32,0,49.944,0,72v368c0,22.056,17.944,40,40,40h176h48h176c22.056,0,40-17.944,40-40V72
		C480,49.944,462.056,32,440,32z M360,112c13.232,0,24-10.768,24-24c8.824,0,16,7.184,16,16s-7.176,16-16,16h-48
		c-8.824,0-16-7.176-16-16s7.176-16,16-16C336,101.232,346.768,112,360,112z M352,24c0-4.416,3.592-8,8-8s8,3.584,8,8v64
		c0,4.416-3.592,8-8,8s-8-3.584-8-8V24z M120,112c13.232,0,24-10.768,24-24c8.824,0,16,7.184,16,16s-7.176,16-16,16H96
		c-8.824,0-16-7.176-16-16s7.176-16,16-16C96,101.232,106.768,112,120,112z M112,24c0-4.416,3.592-8,8-8s8,3.584,8,8v64
		c0,4.416-3.592,8-8,8s-8-3.584-8-8V24z M40,48h56v24c-17.648,0-32,14.352-32,32s14.352,32,32,32h48c17.648,0,32-14.352,32-32
		s-14.352-32-32-32V48h192v24c-17.648,0-32,14.352-32,32s14.352,32,32,32h48c17.648,0,32-14.352,32-32s-14.352-32-32-32V48h56
		c13.232,0,24,10.768,24,24v88H16V72C16,58.768,26.768,48,40,48z M224,464v-48h32v48H224z M207.296,332.728
		c-1.288-2.88-4.152-4.728-7.296-4.728h-30.368l44.392-50.736c2.064-2.36,2.56-5.712,1.264-8.568
		C213.984,265.832,211.136,264,208,264h-14.184L240,212.04L286.184,264H272c-3.144,0-5.992,1.832-7.288,4.696
		c-1.296,2.856-0.8,6.208,1.264,8.568L310.368,328H280c-3.152,0-6.008,1.848-7.296,4.728c-1.296,2.864-0.776,6.232,1.32,8.584
		L326.184,400H272h-8h-48h-8h-54.184l52.168-58.688C208.072,338.96,208.592,335.592,207.296,332.728z M440,464H272v-48h72
		c3.152,0,6.008-1.848,7.296-4.728c1.296-2.864,0.776-6.232-1.32-8.584L297.816,344H328c3.144,0,5.984-1.832,7.288-4.696
		c1.296-2.856,0.8-6.208-1.264-8.568L289.624,280H304c3.152,0,6.008-1.848,7.296-4.728c1.296-2.864,0.776-6.232-1.32-8.584l-64-72
		c-3.04-3.424-8.92-3.424-11.96,0l-64,72c-2.088,2.352-2.608,5.72-1.312,8.584c1.288,2.88,4.144,4.728,7.296,4.728h14.368
		l-44.392,50.736c-2.064,2.36-2.56,5.712-1.264,8.568c1.296,2.864,4.144,4.696,7.288,4.696h30.184l-52.168,58.688
		c-2.088,2.352-2.608,5.72-1.312,8.584c1.288,2.88,4.144,4.728,7.296,4.728h72v48H40c-13.232,0-24-10.768-24-24V176h448v264
		C464,453.232,453.232,464,440,464z"/>
	<polygon style="fill:#593F27;" points="360,232 344,232 344,248 328,248 328,264 344,264 344,280 360,280 360,264 376,264 376,248 
		360,248 	"/>
	<polygon style="fill:#593F27;" points="416,328 400,328 400,344 384,344 384,360 400,360 400,376 416,376 416,360 432,360 432,344 
		416,344 	"/>
	<polygon style="fill:#593F27;" points="120,200 104,200 104,216 88,216 88,232 104,232 104,248 120,248 120,232 136,232 136,216 
		120,216 	"/>
	<polygon style="fill:#593F27;" points="80,304 64,304 64,320 48,320 48,336 64,336 64,352 80,352 80,336 96,336 96,320 80,320 	"/>
	<polygon style="fill:#593F27;" points="392,240 408,240 408,224 424,224 424,208 408,208 408,192 392,192 392,208 376,208 376,224 
		392,224 	"/>
	<rect x="200" y="368" style="fill:#593F27;" width="16" height="16"/>
	<rect x="256" y="360" style="fill:#593F27;" width="16" height="16"/>
	<rect x="248" y="296" style="fill:#593F27;" width="16" height="16"/>
	<rect x="208" y="304" style="fill:#593F27;" width="16" height="16"/>
	<rect x="232" y="248" style="fill:#593F27;" width="16" height="16"/>
	<rect x="224" y="336" style="fill:#593F27;" width="16" height="16"/>
	<rect x="176" y="432" style="fill:#593F27;" width="16" height="16"/>
	<rect x="144" y="432" style="fill:#593F27;" width="16" height="16"/>
	<rect x="112" y="432" style="fill:#593F27;" width="16" height="16"/>
</g>
<g>
</g>
<g>
</g>
<g>
</g>
<g>
</g>
<g>
</g>
<g>
</g>
<g>
</g>
<g>
</g>
<g>
</g>
<g>
</g>
<g>
</g>
<g>
</g>
<g>
</g>
<g>
</g>
<g>
</g>
</svg>
