<?xml version="1.0" encoding="iso-8859-1"?>
<!-- Generator: Adobe Illustrator 19.0.0, SVG Export Plug-In . SVG Version: 6.00 Build 0)  -->
<svg version="1.1" id="Capa_1" xmlns="http://www.w3.org/2000/svg" xmlns:xlink="http://www.w3.org/1999/xlink" x="0px" y="0px"
	 viewBox="0 0 449.184 449.184" style="enable-background:new 0 0 449.184 449.184;" xml:space="preserve">
<g>
	<g>
		<path d="M369.184,208.592c-5.952,0-11.712,0.752-17.296,1.984c0.016-0.672,0.096-1.312,0.096-1.984c0-70.688-57.312-128-128-128
			c-59.696,0-109.696,40.928-123.856,96.208c-1.376-0.064-2.736-0.208-4.128-0.208c-53.024,0-96,42.976-96,96
			c0,53.024,42.976,96,96,96h273.184c44.176,0,80-35.824,80-80C449.184,244.416,413.376,208.592,369.184,208.592z M224,336.592
			l-96-96h64v-64h64v64h64L224,336.592z"/>
	</g>
</g>
<g>
</g>
<g>
</g>
<g>
</g>
<g>
</g>
<g>
</g>
<g>
</g>
<g>
</g>
<g>
</g>
<g>
</g>
<g>
</g>
<g>
</g>
<g>
</g>
<g>
</g>
<g>
</g>
<g>
</g>
</svg>
