<?xml version="1.0" encoding="iso-8859-1"?>
<!-- Generator: Adobe Illustrator 19.0.0, SVG Export Plug-In . SVG Version: 6.00 Build 0)  -->
<svg version="1.1" id="Capa_1" xmlns="http://www.w3.org/2000/svg" xmlns:xlink="http://www.w3.org/1999/xlink" x="0px" y="0px"
	 viewBox="0 0 483.479 483.479" style="enable-background:new 0 0 483.479 483.479;" xml:space="preserve">
<polygon style="fill:#BFD7C2;" points="143.999,382.474 167.999,373.018 167.999,181.05 162.967,176.026 143.383,225.738 
	143.999,225.738 "/>
<polygon style="fill:#E14A3B;" points="199.999,213.05 183.999,197.05 183.999,366.714 199.999,360.41 "/>
<polygon style="fill:#BFD7C2;" points="287.999,301.05 287.999,325.746 305.711,318.762 "/>
<g>
	<polygon style="fill:#E14A3B;" points="271.999,285.05 255.999,269.05 255.999,338.346 271.999,332.05 	"/>
	<polygon style="fill:#E14A3B;" points="111.999,395.082 127.999,388.778 127.999,264.802 111.871,305.738 111.999,305.738 	"/>
</g>
<polygon style="fill:#BFD7C2;" points="239.999,253.05 215.999,229.05 215.999,354.106 239.999,344.65 "/>
<g>
	<path style="fill:#F8EED1;" d="M423.999,196.914c4.728-7.848,11.328-14.448,19.176-19.176
		c-7.848-4.728-14.448-11.336-19.176-19.176c-4.728,7.848-11.336,14.448-19.184,19.176
		C412.663,182.466,419.271,189.074,423.999,196.914z"/>
	<path style="fill:#F8EED1;" d="M279.999,86.554c-4.728,7.848-11.336,14.448-19.184,19.184c7.848,4.728,14.448,11.336,19.184,19.176
		c4.728-7.848,11.328-14.448,19.176-19.176C291.327,101.01,284.727,94.402,279.999,86.554z"/>
</g>
<polygon style="fill:#BFD7C2;" points="95.999,346.026 70.183,411.554 95.999,401.378 "/>
<g>
	<path style="fill:#593F27;" d="M257.111,462.738l-43.032-50.208c-1.6-1.864-3.96-2.824-6.424-2.784
		c-2.456,0.112-4.728,1.336-6.16,3.344l-35.096,49.128l-33.408-26.72c-1.984-1.584-4.592-2.128-7.056-1.488l-91.216,24.32
		l25.76-25.76l78.264-30.832h5.256v-2.072l178.936-70.488c2.504-0.992,4.352-3.168,4.896-5.816c0.552-2.64-0.272-5.376-2.176-7.288
		l-160-160c-1.904-1.912-4.656-2.736-7.288-2.176c-2.64,0.544-4.824,2.392-5.816,4.896L49.167,421.258L2.343,468.082
		c-2.56,2.56-3.08,6.512-1.272,9.656c1.448,2.512,4.12,4,6.928,4c0.68,0,1.376-0.088,2.064-0.272l116.096-30.96l36.848,29.48
		c1.712,1.376,3.928,1.976,6.096,1.68c2.176-0.304,4.136-1.488,5.408-3.28l34.064-47.688l41.352,48.248
		c2.784,3.24,7.616,3.728,10.984,1.112l72-56l-9.824-12.632L257.111,462.738z M111.999,395.082v-89.344h-0.128l16.128-40.936
		v123.976L111.999,395.082z M239.999,344.65l-24,9.456V229.05l24,24V344.65z M255.999,269.05l16,16v47l-16,6.304V269.05z
		 M199.999,360.41l-16,6.304V197.05l16,16V360.41z M287.999,325.746V301.05l17.712,17.712L287.999,325.746z M162.967,176.026
		l5.032,5.024v191.968l-24,9.456V225.738h-0.616L162.967,176.026z M95.999,346.026v55.352l-25.816,10.168L95.999,346.026z"/>
	<path style="fill:#593F27;" d="M223.999,105.738c0,4.416,3.584,8,8,8c22.056,0,40,17.944,40,40c0,4.416,3.584,8,8,8s8-3.584,8-8
		c0-22.056,17.944-40,40-40c4.416,0,8-3.584,8-8s-3.584-8-8-8c-22.056,0-40-17.944-40-40c0-4.416-3.584-8-8-8s-8,3.584-8,8
		c0,22.056-17.944,40-40,40C227.583,97.738,223.999,101.322,223.999,105.738z M279.999,86.554
		c4.728,7.848,11.328,14.448,19.176,19.184c-7.848,4.728-14.448,11.336-19.176,19.176c-4.728-7.848-11.336-14.448-19.184-19.176
		C268.663,101.01,275.271,94.402,279.999,86.554z"/>
	<path style="fill:#593F27;" d="M367.999,177.738c0,4.416,3.584,8,8,8c22.056,0,40,17.944,40,40c0,4.416,3.584,8,8,8s8-3.584,8-8
		c0-22.056,17.944-40,40-40c4.416,0,8-3.584,8-8s-3.584-8-8-8c-22.056,0-40-17.944-40-40c0-4.416-3.584-8-8-8s-8,3.584-8,8
		c0,22.056-17.944,40-40,40C371.583,169.738,367.999,173.322,367.999,177.738z M423.999,158.562
		c4.728,7.848,11.328,14.448,19.176,19.176c-7.848,4.728-14.448,11.336-19.176,19.176c-4.728-7.848-11.336-14.448-19.184-19.176
		C412.663,173.01,419.271,166.402,423.999,158.562z"/>
	<rect x="383.999" y="313.738" style="fill:#593F27;" width="16" height="24"/>
	<rect x="383.999" y="369.738" style="fill:#593F27;" width="16" height="24"/>
	<rect x="407.999" y="345.738" style="fill:#593F27;" width="24" height="16"/>
	<rect x="351.999" y="345.738" style="fill:#593F27;" width="24" height="16"/>
	<path style="fill:#593F27;" d="M330.343,292.082l11.312,11.312c35.984-35.992,94.528-35.984,130.512,0l11.312-11.312
		C441.263,249.866,372.559,249.874,330.343,292.082z"/>
	<path style="fill:#593F27;" d="M373.655,209.186c-31.184-31.192-81.944-31.2-113.136,0l11.312,11.312
		c24.952-24.952,65.56-24.96,90.512,0L373.655,209.186z"/>
	<path style="fill:#593F27;" d="M181.655,151.394c18.144-18.144,28.144-42.256,28.144-67.88s-10-49.736-28.144-67.88l-11.312,11.312
		c15.128,15.12,23.456,35.208,23.456,56.568c0,21.352-8.328,41.448-23.456,56.568L181.655,151.394z"/>
	<path style="fill:#593F27;" d="M363.855,139.842c18.144-18.144,28.144-42.248,28.144-67.88s-10-49.736-28.144-67.88l-11.312,11.312
		c15.128,15.128,23.456,35.216,23.456,56.568s-8.328,41.448-23.456,56.568L363.855,139.842z"/>
	<rect x="207.999" y="153.738" style="fill:#593F27;" width="16" height="16"/>
	<rect x="295.999" y="225.738" style="fill:#593F27;" width="16" height="16"/>
	<rect x="335.999" y="241.738" style="fill:#593F27;" width="16" height="16"/>
	<rect x="311.999" y="145.738" style="fill:#593F27;" width="16" height="16"/>
	<rect x="319.999" y="41.738" style="fill:#593F27;" width="16" height="16"/>
	<rect x="215.999" y="1.738" style="fill:#593F27;" width="16" height="16"/>
	<polygon style="fill:#593F27;" points="447.999,49.738 463.999,49.738 463.999,33.738 479.999,33.738 479.999,17.738 
		463.999,17.738 463.999,1.738 447.999,1.738 447.999,17.738 431.999,17.738 431.999,33.738 447.999,33.738 	"/>
	<rect x="455.999" y="81.738" style="fill:#593F27;" width="16" height="16"/>
	<rect x="407.999" y="65.738" style="fill:#593F27;" width="16" height="16"/>
</g>
<g>
</g>
<g>
</g>
<g>
</g>
<g>
</g>
<g>
</g>
<g>
</g>
<g>
</g>
<g>
</g>
<g>
</g>
<g>
</g>
<g>
</g>
<g>
</g>
<g>
</g>
<g>
</g>
<g>
</g>
</svg>
