<?xml version="1.0" encoding="iso-8859-1"?>
<!-- Generator: Adobe Illustrator 19.0.0, SVG Export Plug-In . SVG Version: 6.00 Build 0)  -->
<svg version="1.1" id="Capa_1" xmlns="http://www.w3.org/2000/svg" xmlns:xlink="http://www.w3.org/1999/xlink" x="0px" y="0px"
	 viewBox="0 0 480 480" style="enable-background:new 0 0 480 480;" xml:space="preserve">
<path style="fill:#BFD7C2;" d="M296,168h31.496c-6.712-21.32-17.336-41.248-31.496-58.944V168z"/>
<polygon style="fill:#E14A3B;" points="200,308.688 280,228.688 280,203.312 200,283.312 "/>
<g>
	<polygon style="fill:#F8EED1;" points="200,260.688 280,180.688 280,131.312 200,211.312 	"/>
	<polygon style="fill:#F8EED1;" points="200,380.688 280,300.688 280,251.312 200,331.312 	"/>
</g>
<path style="fill:#BFD7C2;" d="M416,265.768V280c0,3.232-1.952,6.152-4.936,7.392C410.072,287.8,409.032,288,408,288
	c-2.08,0-4.128-0.816-5.656-2.344L376,259.312l-26.344,26.344c-2.296,2.288-5.728,2.968-8.72,1.736
	c-2.984-1.24-4.936-4.16-4.936-7.392v-56.808c0-13.352-1.544-26.448-4.312-39.192H296v280h128c13.232,0,24-10.768,24-24V184h-49.704
	C409.736,209.296,416,237.096,416,265.768z M360,448h-16v-16h16V448z M392,448h-16v-16h16V448z M424,448h-16v-16h16V448z"/>
<g>
	<path style="fill:#E14A3B;" d="M370.344,242.344c3.128-3.128,8.184-3.128,11.312,0l18.272,18.272
		c-1.68-59.104-32.136-113.696-80.352-146.48C340.672,146.264,352,183.864,352,223.192v37.488L370.344,242.344z"/>
	<polygon style="fill:#E14A3B;" points="200,428.688 280,348.688 280,323.312 200,403.312 	"/>
</g>
<path style="fill:#BFD7C2;" d="M144,223.192V280c0,3.232-1.952,6.152-4.936,7.392C138.072,287.8,137.032,288,136,288
	c-2.08,0-4.128-0.816-5.656-2.344L104,259.312l-26.344,26.344c-2.288,2.288-5.728,2.968-8.72,1.736
	C65.952,286.152,64,283.232,64,280v-14.232c0-28.664,6.264-56.464,17.704-81.768H32v256c0,13.232,10.768,24,24,24h128V184h-35.688
	C145.544,196.744,144,209.84,144,223.192z"/>
<path style="fill:#E14A3B;" d="M104,240c2.048,0,4.096,0.784,5.656,2.344L128,260.688V223.2c0-39.336,11.328-76.928,32.432-109.056
	C112.216,146.92,81.76,201.52,80.08,260.624l18.272-18.272C99.904,240.784,101.952,240,104,240z"/>
<path style="fill:#BFD7C2;" d="M184,168v-58.944c-14.16,17.696-24.784,37.624-31.496,58.944H184z"/>
<polygon style="fill:#F8EED1;" points="200,464 236.688,464 280,420.688 280,371.312 200,451.312 "/>
<path style="fill:#BFD7C2;" d="M89.888,168c16.48-29.176,40.224-54.112,69.368-72H144H16v72h8H89.888z"/>
<polygon style="fill:#E14A3B;" points="200,188.688 280,108.688 280,96 267.312,96 200,163.312 "/>
<path style="fill:#BFD7C2;" d="M320.744,96c29.144,17.888,52.88,42.824,69.368,72H456h8V96H336H320.744z"/>
<polygon style="fill:#F8EED1;" points="200,140.688 244.688,96 240,96 200,96 "/>
<polygon style="fill:#E14A3B;" points="280,464 280,443.312 259.312,464 "/>
<g>
	<path style="fill:#593F27;" d="M472,80H371.672C379.312,71.496,384,60.304,384,48c0-26.472-21.528-48-48-48h-56
		c-16.688,0-31.4,8.568-40,21.52C231.392,8.568,216.688,0,200,0h-56c-26.472,0-48,21.528-48,48c0,12.304,4.688,23.496,12.328,32H8
		c-4.416,0-8,3.584-8,8v88c0,4.416,3.584,8,8,8h8v256c0,22.056,17.944,40,40,40h136h96h136c22.056,0,40-17.944,40-40V184h8
		c4.416,0,8-3.584,8-8V88C480,83.584,476.416,80,472,80z M280,16h56c17.648,0,32,14.352,32,32s-14.352,32-32,32h-48h-40V48
		C248,30.352,262.352,16,280,16z M319.568,114.136c48.216,32.776,78.68,87.376,80.352,146.48l-18.272-18.272
		c-3.128-3.128-8.184-3.128-11.312,0L352,260.688V223.2C352,183.864,340.672,146.264,319.568,114.136z M160.432,114.136
		C139.32,146.264,128,183.864,128,223.192v37.488l-18.344-18.344c-1.56-1.552-3.608-2.336-5.656-2.336s-4.096,0.784-5.656,2.344
		l-18.272,18.272C81.752,201.512,112.208,146.912,160.432,114.136z M280,300.688l-80,80v-49.376l80-80V300.688z M280,228.688l-80,80
		v-25.376l80-80V228.688z M280,180.688l-80,80v-49.376l80-80V180.688z M280,108.688l-80,80v-25.376L267.312,96H280V108.688z M240,96
		h4.688L200,140.688V96H240z M184,109.056V168h-31.496C159.216,146.68,169.84,126.752,184,109.056z M200,403.312l80-80v25.376
		l-80,80V403.312z M296,109.056c14.16,17.696,24.784,37.624,31.496,58.944H296V109.056z M112,48c0-17.648,14.352-32,32-32h56
		c17.648,0,32,14.352,32,32v32h-40h-48C126.352,80,112,65.648,112,48z M16,96h128h15.256c-29.144,17.888-52.88,42.824-69.368,72H24
		h-8V96z M32,440V184h49.704C70.264,209.296,64,237.096,64,265.768V280c0,3.232,1.952,6.152,4.936,7.392
		c2.992,1.232,6.432,0.552,8.72-1.736L104,259.312l26.344,26.344C131.872,287.184,133.92,288,136,288c1.032,0,2.072-0.2,3.064-0.608
		c2.984-1.24,4.936-4.16,4.936-7.392v-56.808c0-13.352,1.544-26.448,4.312-39.192H184v280H56C42.768,464,32,453.232,32,440z
		 M200,451.312l80-80v49.376L236.688,464H200V451.312z M259.312,464L280,443.312V464H259.312z M448,440c0,13.232-10.768,24-24,24
		H296V184h35.688c2.768,12.744,4.312,25.84,4.312,39.192V280c0,3.232,1.952,6.152,4.936,7.392c2.992,1.232,6.424,0.552,8.72-1.736
		L376,259.312l26.344,26.344C403.872,287.184,405.92,288,408,288c1.032,0,2.072-0.2,3.064-0.608c2.984-1.24,4.936-4.16,4.936-7.392
		v-14.232c0-28.664-6.264-56.464-17.704-81.768H448V440z M464,168h-8h-65.896c-16.48-29.176-40.224-54.112-69.368-72H336h128V168z"
		/>
	<rect x="408" y="432" style="fill:#593F27;" width="16" height="16"/>
	<rect x="376" y="432" style="fill:#593F27;" width="16" height="16"/>
	<rect x="344" y="432" style="fill:#593F27;" width="16" height="16"/>
</g>
<g>
</g>
<g>
</g>
<g>
</g>
<g>
</g>
<g>
</g>
<g>
</g>
<g>
</g>
<g>
</g>
<g>
</g>
<g>
</g>
<g>
</g>
<g>
</g>
<g>
</g>
<g>
</g>
<g>
</g>
</svg>
