<?xml version="1.0" encoding="utf-8"?>
<!-- Generator: Adobe Illustrator 22.0.0, SVG Export Plug-In . SVG Version: 6.00 Build 0)  -->
<svg version="1.1" id="Calque_1" xmlns="http://www.w3.org/2000/svg" xmlns:xlink="http://www.w3.org/1999/xlink" x="0px" y="0px"
	 viewBox="0 0 432 432" style="enable-background:new 0 0 432 432;" xml:space="preserve">
<style type="text/css">
	.st0{fill:#E5DAC7;}
	.st1{fill:#FAF3E3;}
	.st2{fill:#C7B29A;}
	.st3{fill:#972021;}
	.st4{fill:#E9EAE4;}
	.st5{fill:#8C633A;}
	.st6{fill:#F39323;}
	.st7{fill:#ED6F71;}
	.st8{fill:#FFFFFF;}
	.st9{fill:#B6CE3F;}
	.st10{fill:#95AF23;}
	.st11{fill:#18B0C1;}
	.st12{fill:#C2E1D1;}
	.st13{fill:#9F1E29;}
	.st14{fill:#E6E9EA;}
	.st15{fill:#020203;}
	.st16{fill:#4D9564;}
	.st17{fill:#754D24;}
	.st18{fill:#A67D52;}
	.st19{fill:#F0D2B5;}
	.st20{fill:#E1BC9E;}
	.st21{fill:#97509A;}
	.st22{fill:#603914;}
	.st23{fill:#E83078;}
	.st24{fill:#E89125;}
	.st25{fill:#89BF4A;}
	.st26{fill:#82171C;}
	.st27{fill:#6CC2EE;}
	.st28{fill:#1861A9;}
	.st29{fill:#E00825;}
	.st30{fill:#109F3D;}
	.st31{fill:#808181;}
	.st32{fill:#D79A5D;}
	.st33{fill:#C68448;}
	.st34{fill:#D62416;}
	.st35{fill:#F9D61D;}
	.st36{fill:#A9191E;}
	.st37{fill:#F3E4E7;}
	.st38{fill:none;}
	.st39{fill:#E8CAA3;}
	.st40{fill:#64121D;}
	.st41{fill:#15A57E;}
	.st42{fill:#167157;}
	.st43{fill:#CF8916;}
	.st44{fill:#B26F14;}
	.st45{fill:#901D81;}
	.st46{fill:#612261;}
	.st47{fill:#B88E5C;}
	.st48{fill:#EBDCC8;}
	.st49{fill:#F3A0BE;}
	.st50{fill:#FAD7E3;}
	.st51{fill:#EAD797;}
	.st52{fill:#E18CAC;}
	.st53{fill:#A8D9DD;}
	.st54{fill:#67C2C6;}
	.st55{fill:#4EADAD;}
	.st56{fill:#CDCCCC;}
	.st57{fill:#D4C3B3;}
	.st58{fill:#CAB9A7;}
	.st59{fill:#C69C6C;}
	.st60{fill:#D7C5B3;}
	.st61{fill:#96877C;}
	.st62{fill:#EFE8E9;}
	.st63{fill:#B4B4B4;}
	.st64{fill:#F0CC53;}
	.st65{fill:#EE7D54;}
	.st66{fill:#F5D29D;}
	.st67{fill:#5D403F;}
	.st68{fill:#F9CBCC;}
	.st69{fill:#F6DEB8;}
	.st70{fill:#D6A14D;}
	.st71{fill:#B09878;}
	.st72{fill:#C1292E;}
	.st73{fill:#5B4841;}
	.st74{fill:#E0C399;}
	.st75{fill:#EBDA8C;}
	.st76{fill:#363A3D;}
	.st77{fill:#BFC1D7;}
	.st78{fill:#7188BA;}
	.st79{fill:#A34F4D;}
	.st80{fill:#D9CD7A;}
	.st81{fill:#D9AF66;}
	.st82{fill:#E6C776;}
	.st83{fill:#575756;}
	.st84{fill:#C3BF5B;}
	.st85{fill:#63622A;}
	.st86{fill:#E1AE9D;}
	.st87{fill:#D9C7AB;}
	.st88{fill:#B3625C;}
	.st89{fill:#D4BB78;}
	.st90{fill:#009245;}
	.st91{fill:#0B7B3A;}
	.st92{fill:#911A29;}
	.st93{fill:#571419;}
	.st94{fill:#9A9999;}
	.st95{fill:#A81922;}
	.st96{fill:#A3282E;}
	.st97{fill:#B3713B;}
	.st98{fill:#998675;}
	.st99{fill:#6189B1;}
	.st100{fill:#E0EDF3;}
	.st101{fill:#A5C0DF;}
	.st102{fill:#DBDBDB;}
	.st103{fill:#067838;}
	.st104{fill:#E5AEBF;}
	.st105{fill:#9982BC;}
	.st106{fill:#E7E6E6;}
	.st107{fill:#706F6F;}
	.st108{fill:#746458;}
	.st109{fill:#412413;}
	.st110{fill:#544842;}
	.st111{fill:#DAA405;}
	.st112{fill:#D06C5D;}
	.st113{fill:#8C694B;}
	.st114{fill:#C8C8CE;}
	.st115{fill:#D286A7;}
	.st116{fill:#C6CCCC;}
	.st117{fill:#A65F42;}
	.st118{fill:#343434;}
	.st119{fill:#A56E45;}
	.st120{fill:#F2F2F2;}
	.st121{fill:#8AC18A;}
	.st122{fill:#4B6678;}
	.st123{fill:#324C5B;}
	.st124{fill:#97AFBC;}
	.st125{fill:#B27D63;}
	.st126{fill:#6A737A;}
	.st127{fill:#72403F;}
	.st128{fill:#8D7968;}
	.st129{fill:#1B1B1B;}
	.st130{fill:#6B141A;}
	.st131{fill:#E4DCCC;}
	.st132{fill:#B33949;}
	.st133{fill:#6D141B;}
	.st134{fill:#911825;}
	.st135{fill:#821622;}
	.st136{fill:#1F1D1D;}
	.st137{fill:#CC1417;}
	.st138{fill:#69362D;}
	.st139{fill:#ECC9AE;}
	.st140{fill:#471E19;}
	.st141{fill:#2B1D1C;}
	.st142{fill:#BE1622;}
	.st143{fill:#E6332A;}
	.st144{fill:#D8EAF8;}
	.st145{fill:#D4AE8E;}
	.st146{fill:#883B4C;}
	.st147{fill:#C74A54;}
	.st148{fill:#F2959C;}
	.st149{fill:#3C3C3B;}
</style>
<g>
	<path class="st21" d="M321.7,190.6c-1.8-1.3-4.1-1.2-6.3,0.2c-0.5,0.3-1,0.7-1.7,1.3c-0.5-2.9-1.3-5.4-4.4-5.9
		c-2.4-0.4-4,0.8-5.4,2.8c-0.5-0.4-1-0.7-1.5-1.1c-2.4-1.9-5.1-2.2-7.3-0.7c-2.2,1.5-3.3,4.2-2.4,7c0.5,1.6,1.3,3.1,2,4.6
		c0.6,1.1,1,2.1,0.9,3.4c-0.2,3.7,1.2,6.8,3.9,9.3c1,0.9,1.1,1.8,1,3c-0.5,4.9-0.9,9.7-1.5,14.6c-0.2,2.2-0.5,4.3-1,6.4
		c-0.4,1.6-1.4,2.9-2.9,3.7c-0.6,0.4-1.3,0.7-1.9,1c-0.5-6.5-1.3-12.9-2.4-19.3c-2-12.1-5.4-23.8-10.1-35.1
		c-2.7-6.6-6.2-12.8-11.1-18.1c-0.6-0.7-1-1.8-1-2.8c-0.1-2.3,0.1-4.6,0.1-6.9c0.1-3.2,0.3-6.4,0.2-9.6c-0.1-3.6-3.3-6-6.9-3.5
		c-2.6,1.9-5.1,3.8-7.7,5.7c-1.4,1-2.7,2.1-4,3.2c-1.5,1.2-3.2,1.4-5.2,1.1c-2.7-0.5-5.4-0.9-8.1-1c-9.7-0.4-19.4,0.1-29.1,0.7
		c-6.7,0.4-13.4,1.1-20.1,1.7c-3.1,0.3-6.2,0.6-9.3,0.8c-1,0-2.2-0.3-3-0.9c-1.6-1.1-3.1-2.4-4.6-3.7c-1.8-1.6-3.4-3.3-5.3-4.8
		c-1.7-1.3-3.6-2.2-5.8-2.1c-2.2,0.1-3.8,1.6-3.9,3.9c0,0.9,0.1,1.7,0.2,2.6c0.1,0.9,0.4,1.7,0.5,2.6c0.4,3.3,0.6,6.6,1.1,9.9
		c0.5,3.2,0.1,6-1.5,8.9c-5.5,10.7-9.3,22.1-12.5,33.7c-2.7,9.8-4.5,19.7-5.6,29.8c-0.1,0.9-0.2,1.9-0.3,2.8
		c-0.4-0.2-0.8-0.4-1.2-0.6c-1.5-0.8-2.6-2.1-2.9-3.7c-0.5-2.1-0.7-4.3-1-6.4c-0.5-4.9-0.9-9.7-1.5-14.6c-0.1-1.2,0-2.1,1-3
		c2.7-2.5,4.1-5.6,3.9-9.3c-0.1-1.3,0.3-2.3,0.9-3.4c0.8-1.5,1.6-3,2-4.6c0.8-2.8-0.2-5.5-2.4-7c-2.2-1.5-4.9-1.2-7.3,0.7
		c-0.5,0.4-0.9,0.7-1.5,1.1c-1.3-2-3-3.2-5.4-2.8c-3.1,0.5-3.9,3-4.4,5.9c-0.7-0.6-1.2-0.9-1.7-1.3c-2.2-1.5-4.5-1.6-6.3-0.2
		c-1.8,1.3-2.4,3.5-1.6,6c0.6,1.7,1.4,3.2,2.1,4.9c0.5,1.1,1.1,2.2,1.4,3.4c0.7,3.1,2.2,5.7,4.7,7.7c0.6,0.5,0.7,1,0.8,1.7
		c0.3,5,0.6,10,1.2,15c0.5,4.3,1.3,8.6,2.8,12.7c1.1,3,2.8,5.4,5.4,7.2c3,2,6.4,3,9.9,3.6c-0.1,1.5-0.2,3-0.2,4.5
		c0,1.1-0.1,2.3-0.1,3.4c-0.1,5.2,0.1,10.5,0.3,15.7c0.2,5.1,0.8,10.2,1.4,15.2c1.5,11.5,4.3,22.6,8,33.6c1.6,4.8,3.3,9.5,5.2,14.1
		c1.6,3.8,3.3,7.6,5.3,11.3c2.2,4.2,4.8,8.2,8.3,11.5c1.9,1.7,4,3.3,6.2,4.5c2.7,1.5,5.5-0.3,5.9-3.4c0.1-0.5,0.1-1.1,0-1.6
		c-0.3-3.2-0.7-6.5-1.1-9.7c-0.6-4.6-1.2-9.2-1.1-13.8c0.3-6.8,2.6-9.7,9.2-11.3c5.3-1.3,10.7-1.6,16.2-1.5c6.5,0.1,13,0.3,19.5,0.5
		v0.2c4.3,0,8.6,0,12.8,0c5.1,0.1,10.2,0.1,15.3,0.4c4.5,0.3,6.5,0.9,7.9,6.3c0.8,3,1,6,0.8,9.1c-0.3,5.1-0.7,10.1-1.1,15.2
		c-0.2,2.6,0,5,1.3,7.3c1.6,2.7,4.4,3.6,7.2,2.2c1-0.5,2.1-1.1,2.8-1.9c2.1-2.1,4.2-4.3,6-6.6c2.8-3.7,4.9-7.8,6.9-12
		c0.8-1.9,1.6-3.7,2.3-5.6c3.7-9.7,6.1-19.7,7.9-29.9c2.8-15.8,3.7-31.7,4-47.6c0-0.6,0-1.2,0-1.8c0-2.7,0-5.5-0.1-8.2
		c0.1,0,0.1,0,0.2,0c3.9-0.5,7.6-1.5,10.9-3.7c2.6-1.8,4.3-4.2,5.4-7.2c1.5-4.1,2.3-8.4,2.8-12.7c0.6-5,0.9-10,1.2-15
		c0.1-0.7,0.2-1.3,0.8-1.7c2.5-2,3.9-4.6,4.7-7.7c0.3-1.2,0.9-2.3,1.4-3.4c0.7-1.6,1.5-3.2,2.1-4.9
		C324.2,194.2,323.5,192,321.7,190.6z"/>
	<g>
		<g>
			<g>
				<path class="st22" d="M137.8,87.1c-0.9-2.7-1.7-5.4-2.7-8c-0.9-2.6-1.9-5.2-2.8-7.9c-0.3-0.8-0.5-1.7-0.5-2.6c0.2-3.3,4-5,6.7-3
					c0.8,0.6,1.5,1.4,2,2.3c0.9,1.6,1.6,3.3,2.5,4.9c3.4,6.9,6.8,13.7,10.2,20.6c0.3,0.7,0.8,1.3,1.5,1.9c0-0.4,0.1-0.7,0.1-1.1
					c0.3-5.6,0.5-11.2,0.9-16.9c0.2-2.6,0.8-5.1,1.4-7.6c0.2-0.8,0.5-1.7,0.9-2.5c0.8-1.5,2.2-2.3,3.9-2.2c1.8,0.1,3.2,1,3.7,2.7
					c0.5,1.7,0.8,3.5,0.8,5.2c0,4.5,0,9.1-0.3,13.6c-0.8,11.7,1.8,22.6,6.9,33.1c0.6,1.2,1.5,2.2,2.3,3.3c2.5,3.4,5.1,6.7,7.4,10.2
					c3.2,5,5,10.7,6.5,16.4c0.2,0.8,0.3,1.6,0.2,2.4c-0.2,3.4-3.4,5.3-6.4,3.8c-1.7-0.8-2.7-2.2-3.6-3.7c-1.2-2-2.5-4.1-3.4-6.2
					c-1.5-3.5-4.4-5.4-7.7-6.8c-3.3-1.4-6.8-2.3-10.4-2.6c-1-0.1-2-0.2-3-0.5c-0.9-0.2-1.8-0.6-2.6-1c-1.6-0.9-2.6-2.3-2.5-4.1
					c0.1-1.9,1.1-3.2,2.8-3.9c1.2-0.5,2.6-0.7,3.9-0.9c1.1-0.2,2.3-0.2,3.7-0.2c-0.3-0.5-0.4-0.9-0.7-1.2
					c-5.3-6.4-10-13.2-13.8-20.6c-0.4-0.7-1.2-1.3-1.9-1.7c-6.1-3.2-12.2-6.3-18.3-9.3c-2.3-1.2-4.4-2.7-6.2-4.5c-2-2-2.5-4.2-1.4-6
					c1.1-1.8,3-2.4,5.8-1.8c2.8,0.6,5.4,1.7,7.9,3.2c2,1.2,4,2.3,6,3.4C137.5,87.3,137.7,87.2,137.8,87.1z"/>
				<path class="st22" d="M283,87.1c0.9-2.7,1.7-5.4,2.7-8c0.9-2.6,1.9-5.2,2.8-7.9c0.3-0.8,0.5-1.7,0.5-2.6c-0.2-3.3-4-5-6.7-3
					c-0.8,0.6-1.5,1.4-2,2.3c-0.9,1.6-1.6,3.3-2.5,4.9c-3.4,6.9-6.8,13.7-10.2,20.6c-0.3,0.7-0.8,1.3-1.5,1.9c0-0.4-0.1-0.7-0.1-1.1
					c-0.3-5.6-0.5-11.2-0.9-16.9c-0.2-2.6-0.8-5.1-1.4-7.6c-0.2-0.8-0.5-1.7-0.9-2.5c-0.8-1.5-2.2-2.3-3.9-2.2
					c-1.8,0.1-3.2,1-3.7,2.7c-0.5,1.7-0.8,3.5-0.8,5.2c0,4.5,0,9.1,0.3,13.6c0.8,11.7-1.8,22.6-6.9,33.1c-0.6,1.2-1.5,2.2-2.3,3.3
					c-2.5,3.4-5.1,6.7-7.4,10.2c-3.2,5-5,10.7-6.5,16.4c-0.2,0.8-0.3,1.6-0.2,2.4c0.2,3.4,3.4,5.3,6.4,3.8c1.7-0.8,2.7-2.2,3.6-3.7
					c1.2-2,2.5-4.1,3.4-6.2c1.5-3.5,4.4-5.4,7.7-6.8c3.3-1.4,6.8-2.3,10.4-2.6c1-0.1,2-0.2,3-0.5c0.9-0.2,1.8-0.6,2.6-1
					c1.6-0.9,2.6-2.3,2.5-4.1c-0.1-1.9-1.1-3.2-2.8-3.9c-1.2-0.5-2.6-0.7-3.9-0.9c-1.1-0.2-2.3-0.2-3.7-0.2c0.3-0.5,0.4-0.9,0.7-1.2
					c5.3-6.4,10-13.2,13.8-20.6c0.4-0.7,1.2-1.3,1.9-1.7c6.1-3.2,12.2-6.3,18.3-9.3c2.3-1.2,4.4-2.7,6.2-4.5c2-2,2.5-4.2,1.4-6
					c-1.1-1.8-3-2.4-5.8-1.8c-2.8,0.6-5.4,1.7-7.9,3.2c-2,1.2-4,2.3-6,3.4C283.2,87.3,283.1,87.2,283,87.1z"/>
			</g>
			<path class="st16" d="M287.3,193.2c0.1,4.2-4.1,6.9-8,5c-2.2-1-4-2.6-5.3-4.6c-0.9-1.4-1.8-2.9-2.7-4.3
				c-9-13.2-21.2-22.2-36.5-26.8c-9-2.7-18.1-4.2-27.5-3.7c-15.3,0.8-28.9,5.8-40.3,16.2c-4,3.6-7.2,7.9-10.3,12.3
				c-1.1,1.6-2.1,3.1-3.4,4.6c-0.8,0.9-1.7,1.8-2.8,2.3c-2.1,1.2-4.4,0.4-5.5-1.8c-0.7-1.4-0.9-2.9-0.7-4.5
				c0.8-4.6,2.8-8.6,5.2-12.5c7.1-12,17.6-20.1,30.3-25.5c11.2-4.8,22.9-6.4,35-5.4c7.7,0.6,15.4,1.7,22.8,4
				c10.6,3.2,19.7,8.9,28.2,15.9c7.8,6.4,14.1,13.9,19.3,22.4C286.3,188.5,287.3,191.5,287.3,193.2z"/>
		</g>
		<g>
			<path class="st23" d="M180.6,305.9c-0.1,1.4-1.1,2.2-2.3,2.5c-1.1,0.3-2.2,0.6-3.4,0.7c-5.7,0.4-11.4,0.1-17.1-0.6
				c-2.8-0.3-5.6-0.8-8.4-1.1c-0.1,0.1-0.1,0.2-0.2,0.4c0.7,0.6,1.4,1.2,2.1,1.8c5.1,3.9,10.1,7.8,15.2,11.5
				c2.9,2.1,3.3,4.5,0.8,7.1c-3.2,3.3-6.9,5.9-10.8,8.2c-1.7,1-3.3,1.9-5,2.8c-1.9-4.6-3.6-9.3-5.2-14.1c-3.7-10.9-6.5-22.1-8-33.6
				c-0.7-5-1.2-10.1-1.4-15.2c-0.2-5.2-0.4-10.5-0.3-15.7c0.5,0.1,1.1,0.3,1.7,0.7c0.5,0.3,1,0.7,1.5,1c6.5,5.2,13,10.4,19.5,15.7
				c1,0.8,1.9,1.7,2.8,2.7c1,1.1,1.3,2.4,0.8,3.8c-0.6,1.4-1.8,2-3.3,1.9c-3.5-0.2-7-0.5-10.5-0.7c-0.4,0-0.8-0.1-1.3,0.2
				c0.6,0.4,1.1,0.9,1.7,1.3c8.4,6,17.5,10.8,27.1,14.7c0.8,0.3,1.5,0.6,2.2,1C179.9,303.6,180.7,304.5,180.6,305.9z"/>
			<path class="st23" d="M294,261.1c0,0.6,0,1.2,0,1.8c-0.2,15.9-1.2,31.9-4,47.6c-1.8,10.2-4.1,20.2-7.9,29.9
				c-2.3-1.3-4.7-2.6-7-3.9c-3.9-2.3-7.7-4.9-10.8-8.2c-2.5-2.6-2.1-5,0.8-7.1c5.1-3.8,10.2-7.7,15.2-11.5c0.7-0.6,1.4-1.2,2.1-1.8
				c0-0.1-0.1-0.2-0.2-0.4c-2.8,0.4-5.6,0.8-8.4,1.1c-5.7,0.7-11.4,1-17.1,0.6c-1.1-0.1-2.3-0.3-3.4-0.7c-1.2-0.4-2.2-1.1-2.3-2.5
				s0.6-2.3,1.8-3c0.7-0.4,1.5-0.7,2.2-1c9.6-3.9,18.7-8.7,27.1-14.7c0.6-0.4,1.1-0.9,1.7-1.3c-0.5-0.3-0.9-0.2-1.3-0.2
				c-3.5,0.2-7,0.5-10.5,0.7c-1.5,0.1-2.7-0.5-3.3-1.9c-0.6-1.4-0.2-2.7,0.8-3.8c0.9-0.9,1.8-1.8,2.8-2.7c6.5-5.3,13-10.5,19.5-15.7
				c0.5-0.4,1-0.7,1.5-1C293.7,261.3,293.8,261.2,294,261.1z"/>
		</g>
		<g>
			<g>
				<path class="st8" d="M180.1,216.4c-1.7,0-3-0.2-4.3-0.9c-1.4-0.7-2.5-1.7-3.1-3.1c-1.2-2.4-1.6-5-1-7.7c0.9-3.6,3.8-6.2,7.5-6.7
					c1.6-0.2,3.2-0.1,4.7,0.5c2.5,0.9,4.1,2.6,5,5c1.4,3.3,0.9,6.5-1.5,9.2C185.5,215.2,182.9,216.3,180.1,216.4z"/>
				<path class="st15" d="M186.9,204.6c-0.7-1.7-1.9-3-3.7-3.7c-1.1-0.4-2.3-0.5-3.4-0.3c-2.7,0.4-4.9,2.2-5.5,4.9
					c-0.5,1.9-0.2,3.8,0.7,5.6c0.5,1,1.3,1.7,2.3,2.2c0.9,0.4,1.9,0.6,3.1,0.6c2-0.1,4-0.9,5.4-2.6
					C187.5,209.3,187.9,207,186.9,204.6z M183.7,204.6c-0.3,0.3-0.6,0.5-1,0.5c-0.2,0-0.4,0-0.6-0.1c-0.2-0.1-0.3-0.2-0.4-0.4
					c-0.2-0.3-0.2-0.7-0.1-1.1c0.1-0.5,0.5-0.8,1-0.9c0.2,0,0.4,0,0.6,0.1c0.3,0.1,0.6,0.4,0.7,0.7
					C184.1,203.8,184,204.2,183.7,204.6z"/>
			</g>
			<g>
				<path class="st8" d="M248.6,219.6c-1.7,0-3-0.2-4.3-0.9c-1.4-0.7-2.5-1.7-3.1-3.1c-1.2-2.4-1.6-5-1-7.7c0.9-3.6,3.8-6.2,7.5-6.7
					c1.6-0.2,3.2-0.1,4.7,0.5c2.5,0.9,4.1,2.6,5,5c1.4,3.3,0.9,6.5-1.5,9.2C254,218.3,251.4,219.5,248.6,219.6z"/>
				<path class="st15" d="M255.4,207.8c-0.7-1.7-1.9-3-3.7-3.7c-1.1-0.4-2.3-0.5-3.4-0.3c-2.7,0.4-4.9,2.2-5.5,4.9
					c-0.5,1.9-0.2,3.8,0.7,5.6c0.5,1,1.3,1.7,2.3,2.2c0.9,0.4,1.9,0.6,3.1,0.6c2-0.1,4-0.9,5.4-2.6
					C256,212.5,256.4,210.2,255.4,207.8z M252.2,207.8c-0.3,0.3-0.6,0.5-1,0.5c-0.2,0-0.4,0-0.6-0.1c-0.2-0.1-0.3-0.2-0.4-0.4
					c-0.2-0.3-0.2-0.7-0.1-1.1c0.1-0.5,0.5-0.8,1-0.9c0.2,0,0.4,0,0.6,0.1c0.3,0.1,0.6,0.4,0.7,0.7
					C252.6,207,252.6,207.4,252.2,207.8z"/>
			</g>
			<g>
				<path class="st8" d="M214.2,215.9c-3.8,0-6.7-0.5-9.5-1.9c-3-1.5-5.4-3.7-6.9-6.8c-2.6-5.4-3.6-11.1-2.2-16.9
					c2-8,8.5-13.7,16.7-14.8c3.5-0.5,7-0.2,10.4,1c5.4,1.9,9,5.8,11.2,11.1c3,7.4,1.9,14.3-3.3,20.4
					C226.2,213.1,220.4,215.7,214.2,215.9z"/>
				<path class="st15" d="M229.2,189.7c-1.6-3.8-4.2-6.7-8.2-8.1c-2.5-0.9-5-1.1-7.6-0.7c-6,0.8-10.7,5-12.2,10.9
					c-1.1,4.3-0.3,8.5,1.6,12.4c1.1,2.2,2.8,3.9,5.1,4.9c2,1,4.2,1.4,6.9,1.4c4.5-0.1,8.8-2,12-5.8
					C230.7,200.1,231.5,195.1,229.2,189.7z M222.2,189.7c-0.6,0.7-1.4,1.1-2.2,1.1c-0.5,0-0.9-0.1-1.3-0.3c-0.4-0.2-0.7-0.5-0.9-0.9
					c-0.4-0.7-0.5-1.5-0.3-2.3c0.3-1.1,1.2-1.9,2.3-2c0.5-0.1,1,0,1.4,0.1c0.7,0.3,1.2,0.8,1.5,1.5
					C223.1,187.9,222.9,188.9,222.2,189.7z"/>
			</g>
		</g>
		<g>
			<path class="st15" d="M258.6,266.3c-3.4,7.9-8.7,14.1-16.2,18.2c-3.7,2-7.5,3.8-11.4,5.4c-5.2,2.1-10.8,2.7-16.4,2.7
				c-14.2,0-27.1-4.3-38.8-12.2c-4.4-2.9-8.2-6.5-11.3-10.8c-3.3-4.5-5-9.6-5.3-15.1c-0.2-3.7,0.6-7.2,2.6-10.3
				c2.8-4.6,8.2-6.7,14-5.7c2.1,0.4,4.1,1,6,1.9c0.8,0.4,1.6,0.8,2.3,1.2c1.1,0.7,2.2,1.3,3.3,2.1c4.7,3.5,10,5.5,15.5,6.7
				c2.4,0.5,4.8,0.9,7.3,1.2c3.1,0.3,5.9,0.1,8.6-0.8c2.4-0.7,4.7-1.9,6.9-3.4c2.3-1.6,4.6-3.3,7-4.9c2.3-1.6,4.7-2.9,7.2-3.8
				c1.4-0.5,2.9-0.9,4.4-1.2c8.2-1.4,16.7,5.4,17.3,13.7C262,256.4,260.7,261.4,258.6,266.3z"/>
			<g>
				<path class="st8" d="M202.9,250.3v14.1c0,2.8-2.3,5-5,5h-11c-2.8,0-5.1-2.3-5.1-5v-24.1c0.8,0.4,1.6,0.8,2.3,1.2
					c1.1,0.7,2.2,1.3,3.3,2.1C192.2,247.2,197.4,249.2,202.9,250.3z"/>
				<path class="st8" d="M240,238.5v25.9c0,2.8-2.3,5-5,5h-11c-2.8,0-5-2.3-5-5v-13.7c2.4-0.7,4.7-1.9,6.9-3.4
					c2.3-1.6,4.6-3.3,7-4.9C235,240.8,237.4,239.5,240,238.5z"/>
			</g>
		</g>
	</g>
</g>
</svg>
