<?xml version="1.0" encoding="iso-8859-1"?>
<!-- Generator: Adobe Illustrator 19.0.0, SVG Export Plug-In . SVG Version: 6.00 Build 0)  -->
<svg version="1.1" id="Capa_1" xmlns="http://www.w3.org/2000/svg" xmlns:xlink="http://www.w3.org/1999/xlink" x="0px" y="0px"
	 viewBox="0 0 480 480" style="enable-background:new 0 0 480 480;" xml:space="preserve">
<path style="fill:#F8EED1;" d="M384,176v-32h-80v32c0,13.232,10.768,24,24,24h32C373.232,200,384,189.232,384,176z M336,176h-16v-16
	h16V176z M368,176h-16v-16h16V176z"/>
<path style="fill:#E14A3B;" d="M288,256h16v50.232L334.168,264l-34.288-48H288c-13.232,0-24,10.768-24,24v72h24V256z"/>
<path style="fill:#BFD7C2;" d="M288,448c-4.408,0-8,3.584-8,8s3.592,8,8,8h48v-16h-32H288z"/>
<g>
	<path style="fill:#F8EED1;" d="M184,350.864c11.192-2.912,19.952-11.672,22.864-22.864H184V350.864z"/>
	<path style="fill:#F8EED1;" d="M296,328h-22.864c2.912,11.192,11.672,19.952,22.864,22.864V328z"/>
	<polygon style="fill:#F8EED1;" points="330.072,78.76 344,92.688 357.928,78.76 344,55.544 	"/>
</g>
<path style="fill:#E14A3B;" d="M192,216h-11.88l-34.288,48L176,306.232V256h16v56h24v-72C216,226.768,205.232,216,192,216z"/>
<path style="fill:#BFD7C2;" d="M314.344,85.656c-2.6-2.592-3.096-6.624-1.2-9.776l24-40c2.888-4.816,10.824-4.816,13.72,0l24,40
	c1.888,3.144,1.392,7.176-1.2,9.776L363.312,96H400V72c0-30.872-25.12-56-56-56s-56,25.128-56,56v24h36.688L314.344,85.656z"/>
<polygon style="fill:#E14A3B;" points="360,216 328,216 319.544,216 344,250.232 368.456,216 "/>
<polygon style="fill:#F8EED1;" points="352,432 376,432 376,328 312,328 312,432 336,432 336,352 352,352 "/>
<polygon style="fill:#BFD7C2;" points="400,128 400,112 288,112 288,128 296,128 392,128 "/>
<polygon style="fill:#E14A3B;" points="368.456,312 344,277.768 319.544,312 "/>
<path style="fill:#BFD7C2;" d="M352,448v16h48c4.408,0,8-3.584,8-8s-3.592-8-8-8h-16H352z"/>
<path style="fill:#E14A3B;" d="M400,216h-11.88l-34.288,48L384,306.232V256h16v56h24v-72C424,226.768,413.232,216,400,216z"/>
<g>
	<path style="fill:#F8EED1;" d="M392,350.864c11.192-2.912,19.952-11.672,22.864-22.864H392V350.864z"/>
	<path style="fill:#F8EED1;" d="M176,176v-32H96v32c0,13.232,10.768,24,24,24h32C165.232,200,176,189.232,176,176z M128,176h-16v-16
		h16V176z M160,176h-16v-16h16V176z"/>
</g>
<path style="fill:#BFD7C2;" d="M144,448v16h48c4.408,0,8-3.584,8-8s-3.592-8-8-8h-16H144z"/>
<path style="fill:#F8EED1;" d="M88,328H65.136c2.912,11.192,11.672,19.952,22.864,22.864V328z"/>
<path style="fill:#E14A3B;" d="M80,256h16v50.232L126.168,264L91.88,216H80c-13.232,0-24,10.768-24,24v72h24V256z"/>
<polygon style="fill:#F8EED1;" points="144,432 168,432 168,328 104,328 104,432 128,432 128,352 144,352 "/>
<g>
	<path style="fill:#BFD7C2;" d="M80,448c-4.408,0-8,3.584-8,8s3.592,8,8,8h48v-16H96H80z"/>
	<polygon style="fill:#BFD7C2;" points="192,128 192,112 80,112 80,128 88,128 184,128 	"/>
</g>
<polygon style="fill:#E14A3B;" points="160.456,312 136,277.768 111.544,312 "/>
<polygon style="fill:#F8EED1;" points="122.072,78.76 136,92.688 149.928,78.76 136,55.544 "/>
<path style="fill:#BFD7C2;" d="M106.344,85.656c-2.6-2.592-3.096-6.624-1.2-9.776l24-40c2.888-4.816,10.832-4.816,13.72,0l24,40
	c1.888,3.144,1.392,7.176-1.2,9.776L155.312,96H192V72c0-30.872-25.12-56-56-56S80,41.128,80,72v24h36.688L106.344,85.656z"/>
<polygon style="fill:#E14A3B;" points="152,216 120,216 111.544,216 136,250.232 160.456,216 "/>
<g>
	<path style="fill:#593F27;" d="M192,200h-8.208c5.08-6.704,8.208-14.96,8.208-24v-32h8c4.416,0,8-3.576,8-8V72
		c0-39.704-32.304-72-72-72S64,32.296,64,72v64c0,4.424,3.584,8,8,8h8v32c0,9.04,3.128,17.296,8.208,24H80
		c-22.056,0-40,17.944-40,40v80c0,4.424,3.584,8,8,8h0.72c3.384,20.056,19.224,35.888,39.28,39.28V432h-8c-13.232,0-24,10.768-24,24
		s10.768,24,24,24h56h56c13.232,0,24-10.768,24-24s-10.768-24-24-24h-8v-64.72c20.056-3.384,35.888-19.224,39.28-39.28H224
		c4.416,0,8-3.576,8-8v-80C232,217.944,214.056,200,192,200z M216,240v72h-24v-56h-16v50.232L145.832,264l34.288-48H192
		C205.232,216,216,226.768,216,240z M160.456,312h-48.904L136,277.768L160.456,312z M120,216h32h8.456L136,250.232L111.544,216H120z
		 M184,128H88h-8v-16h112v16H184z M122.072,78.76L136,55.544l13.928,23.208L136,92.688L122.072,78.76z M136,16
		c30.88,0,56,25.128,56,56v24h-36.688l10.344-10.344c2.6-2.592,3.096-6.624,1.2-9.776l-24-40c-2.888-4.816-10.824-4.816-13.72,0
		l-24,40c-1.888,3.144-1.392,7.176,1.2,9.776L116.688,96H80V72C80,41.128,105.12,16,136,16z M96,176v-32h80v32
		c0,13.232-10.768,24-24,24h-32C106.768,200,96,189.232,96,176z M56,240c0-13.232,10.768-24,24-24h11.88l34.288,48L96,306.232V256
		H80v56H56V240z M65.136,328H88v22.864C76.808,347.952,68.04,339.192,65.136,328z M72,456c0-4.416,3.592-8,8-8h16h32v16H80
		C75.592,464,72,460.416,72,456z M200,456c0,4.416-3.592,8-8,8h-48v-16h32h16C196.408,448,200,451.584,200,456z M144,432v-80h-16v80
		h-24V328h64v104H144z M184,350.864V328h22.864C203.952,339.192,195.192,347.952,184,350.864z"/>
	<rect x="112" y="160" style="fill:#593F27;" width="16" height="16"/>
	<rect x="144" y="160" style="fill:#593F27;" width="16" height="16"/>
	<path style="fill:#593F27;" d="M400,200h-8.208c5.08-6.704,8.208-14.96,8.208-24v-32h8c4.416,0,8-3.576,8-8V72
		c0-39.704-32.304-72-72-72s-72,32.296-72,72v64c0,4.424,3.584,8,8,8h8v32c0,9.04,3.128,17.296,8.208,24H288
		c-22.056,0-40,17.944-40,40v80c0,4.424,3.584,8,8,8h0.72c3.384,20.056,19.224,35.888,39.28,39.28V432h-8c-13.232,0-24,10.768-24,24
		s10.768,24,24,24h56h56c13.232,0,24-10.768,24-24s-10.768-24-24-24h-8v-64.72c20.056-3.384,35.888-19.224,39.28-39.28H432
		c4.416,0,8-3.576,8-8v-80C440,217.944,422.056,200,400,200z M424,240v72h-24v-56h-16v50.232L353.832,264l34.288-48H400
		C413.232,216,424,226.768,424,240z M368.456,312h-48.904L344,277.768L368.456,312z M328,216h32h8.456L344,250.232L319.544,216H328z
		 M392,128h-96h-8v-16h112v16H392z M330.072,78.76L344,55.544l13.928,23.208L344,92.688L330.072,78.76z M344,16
		c30.88,0,56,25.128,56,56v24h-36.688l10.344-10.344c2.6-2.592,3.096-6.624,1.2-9.776l-24-40c-2.888-4.816-10.832-4.816-13.72,0
		l-24,40c-1.888,3.144-1.392,7.176,1.2,9.776L324.688,96H288V72C288,41.128,313.12,16,344,16z M304,176v-32h80v32
		c0,13.232-10.768,24-24,24h-32C314.768,200,304,189.232,304,176z M264,240c0-13.232,10.768-24,24-24h11.88l34.288,48L304,306.232
		V256h-16v56h-24V240z M273.136,328H296v22.864C284.808,347.952,276.04,339.192,273.136,328z M280,456c0-4.416,3.592-8,8-8h16h32v16
		h-48C283.592,464,280,460.416,280,456z M408,456c0,4.416-3.592,8-8,8h-48v-16h32h16C404.408,448,408,451.584,408,456z M352,432v-80
		h-16v80h-24V328h64v104H352z M392,350.864V328h22.864C411.952,339.192,403.192,347.952,392,350.864z"/>
	<rect x="320" y="160" style="fill:#593F27;" width="16" height="16"/>
	<rect x="352" y="160" style="fill:#593F27;" width="16" height="16"/>
</g>
<g>
</g>
<g>
</g>
<g>
</g>
<g>
</g>
<g>
</g>
<g>
</g>
<g>
</g>
<g>
</g>
<g>
</g>
<g>
</g>
<g>
</g>
<g>
</g>
<g>
</g>
<g>
</g>
<g>
</g>
</svg>
