<?xml version="1.0" encoding="iso-8859-1"?>
<!-- Generator: Adobe Illustrator 19.0.0, SVG Export Plug-In . SVG Version: 6.00 Build 0)  -->
<svg version="1.1" id="Capa_1" xmlns="http://www.w3.org/2000/svg" xmlns:xlink="http://www.w3.org/1999/xlink" x="0px" y="0px"
	 viewBox="0 0 512 512" style="enable-background:new 0 0 512 512;" xml:space="preserve">
<path style="fill:#E8E8E8;" d="M68.9,512h374.198c13.54,0,24.516-10.976,24.516-24.516V24.516C467.615,10.976,456.639,0,443.099,0
	H68.9c-13.54,0-24.516,10.976-24.516,24.516v462.968C44.384,501.024,55.361,512,68.9,512z"/>
<path style="opacity:0.1;enable-background:new    ;" d="M443.099,0h-36.846c13.54,0,24.516,10.976,24.516,24.516v462.968
	c0,13.54-10.976,24.516-24.516,24.516h36.846c13.54,0,24.517-10.976,24.517-24.516V24.516C467.615,10.976,456.639,0,443.099,0z"/>
<g>
	<path style="fill:#79C6E4;" d="M249.04,355.325c-14.723,0-34.077-4.718-44.667-20.435c-3.061,2.279-6.671,4.004-10.672,5.043
		c-10.499,2.724-22.033,0.441-30.102-5.965c-13.183-10.465-19.323-29.783-15.28-48.069c2.4-10.853,9.214-17.481,17.273-21.799
		c-1.634-1.313-3.092-2.836-4.31-4.594c-3.137-4.529-5.797-12.239-0.656-23.247c11.101-23.768,39.753-22.392,49.168-21.943
		l0.119,0.006c5.913,0.283,11.654,1.808,17.196,4.034c14.51-16.133,43.381-16.124,57.283-10.91
		c12.522,4.698,22.813,14.696,28.106,26.925c15.256-2.467,30.477,0.677,41.787,8.846c13.438,9.706,22.834,27.29,23.938,44.798
		c0.845,13.391-2.844,36.687-37.041,42.254c-20.764,3.382-30.581-2.031-39.134-6.935c-0.47,1.561-1.087,3.13-1.852,4.684
		c-3.469,7.048-13.072,19.792-38.411,25.953C258.395,354.794,253.979,355.325,249.04,355.325z M206.082,313.54
		c0.126,0,0.252,0.003,0.379,0.01c3.17,0.159,5.896,2.297,6.807,5.337c7.257,24.211,39.02,21.956,44.973,20.508
		c20.132-4.895,26.635-14.219,28.496-18.001c1.759-3.573,1.519-6.106,1.146-6.945c-1.212-2.732-0.687-5.924,1.338-8.123
		c2.025-2.198,5.161-2.987,7.985-2.001c4.705,1.639,8.543,3.841,11.93,5.784c7.722,4.431,13.821,7.928,29.634,5.355
		c17.661-2.875,25.44-11.298,24.48-26.505c-0.82-13.011-7.954-26.506-17.75-33.582c-9.364-6.764-22.787-8.648-35.909-5.044
		c-1.932,0.53-3.997,0.267-5.733-0.733c-1.736-1.001-3-2.655-3.508-4.593c-2.794-10.641-10.928-19.651-21.228-23.516
		c-8.985-3.372-27.356-3.5-37.732,4.087c3.647,2.154,7.18,4.418,10.59,6.604c1.279,0.819,2.538,1.626,3.774,2.408
		c3.501,2.213,4.544,6.846,2.331,10.347c-2.214,3.501-6.846,4.546-10.348,2.331c-1.262-0.798-2.546-1.621-3.851-2.457
		c-10.943-7.013-23.347-14.962-34.693-15.506l-0.119-0.006c-25.109-1.202-31.922,7.019-34.859,13.309
		c-2.575,5.513-1.091,7.655-0.604,8.358c2.42,3.494,9.967,5.681,17.554,5.092c3.925-0.316,7.428,2.485,8.002,6.386
		c0.574,3.9-1.97,7.58-5.823,8.42c-15.679,3.417-27.873,6.932-30.38,18.274c-2.789,12.61,1.307,26.214,9.959,33.083
		c4.39,3.484,11.065,4.739,17.006,3.194c2.607-0.677,7.271-2.518,9.221-7.238C200.316,315.36,203.061,313.54,206.082,313.54z"/>
	<path style="fill:#79C6E4;" d="M198.777,425.221c-0.621,0-1.252-0.078-1.882-0.24c-4.01-1.037-6.421-5.128-5.385-9.139
		l23.503-90.947c1.036-4.011,5.129-6.414,9.138-5.385c4.011,1.037,6.421,5.128,5.385,9.139l-23.503,90.947
		C205.16,422.977,202.115,425.221,198.777,425.221z"/>
	<path style="fill:#79C6E4;" d="M308.118,421.165c-3.179,0-6.13-2.037-7.145-5.228c-9.804-30.813-18.916-62.304-27.083-93.601
		c-1.046-4.008,1.355-8.105,5.363-9.15c4.011-1.048,8.105,1.357,9.151,5.363c8.102,31.042,17.14,62.278,26.864,92.839
		c1.256,3.947-0.926,8.165-4.873,9.421C309.637,421.051,308.871,421.165,308.118,421.165z"/>
	<path style="fill:#79C6E4;" d="M166.661,433.43c-16.77,0-33.91-0.02-51.768-0.058c-4.142-0.009-7.493-3.374-7.484-7.516
		c0.009-4.137,3.365-7.484,7.5-7.484c0.006,0,0.011,0,0.017,0c94.378,0.2,168.706-0.109,274.233-1.147c0.025,0,0.05,0,0.075,0
		c4.108,0,7.457,3.31,7.498,7.426c0.041,4.143-3.284,7.533-7.426,7.574C303.68,433.066,238.58,433.43,166.661,433.43z"/>
</g>
<g>
	<path style="fill:#404B58;" d="M153.121,102.518c-4.142,0-7.5-3.357-7.5-7.5V77.471c0-4.143,3.358-7.5,7.5-7.5s7.5,3.357,7.5,7.5
		v17.547C160.621,99.16,157.264,102.518,153.121,102.518z"/>
	<path style="fill:#404B58;" d="M255.999,138.042L255.999,138.042c-16.358,0-29.618-13.26-29.618-29.618V86.728
		c0-4.365,3.538-7.903,7.903-7.903h43.43c4.365,0,7.903,3.538,7.903,7.903v21.696C285.618,124.782,272.358,138.042,255.999,138.042z
		"/>
	<path style="fill:#404B58;" d="M358.878,102.518c-4.142,0-7.5-3.357-7.5-7.5V77.471c0-4.143,3.358-7.5,7.5-7.5s7.5,3.357,7.5,7.5
		v17.547C366.378,99.16,363.021,102.518,358.878,102.518z"/>
</g>
<g>
</g>
<g>
</g>
<g>
</g>
<g>
</g>
<g>
</g>
<g>
</g>
<g>
</g>
<g>
</g>
<g>
</g>
<g>
</g>
<g>
</g>
<g>
</g>
<g>
</g>
<g>
</g>
<g>
</g>
</svg>
