<?xml version="1.0" encoding="iso-8859-1"?>
<!-- Generator: Adobe Illustrator 19.0.0, SVG Export Plug-In . SVG Version: 6.00 Build 0)  -->
<svg version="1.1" id="Capa_1" xmlns="http://www.w3.org/2000/svg" xmlns:xlink="http://www.w3.org/1999/xlink" x="0px" y="0px"
	 viewBox="0 0 480 480" style="enable-background:new 0 0 480 480;" xml:space="preserve">
<polygon style="fill:#BFD7C2;" points="328,310.408 314.472,360 341.528,360 "/>
<g>
	<path style="fill:#F8EED1;" d="M240,16C125.304,16,32,109.304,32,224c0,68.28,32.68,130.792,88,169.824V344
		c0-1.824,0.616-3.576,1.752-5l32-40c1.512-1.896,3.88-2.848,6.248-2.848V296h80c2.432,0,4.728,1.104,6.248,3l32,40
		c1.136,1.424,1.752,3.176,1.752,5v56h40v-24h-16c-2.496,0-4.848-1.168-6.36-3.144c-1.512-1.984-2.016-4.56-1.36-6.96l24-88
		c0.952-3.48,4.112-5.896,7.72-5.896s6.768,2.416,7.72,5.896l24,88c0.656,2.4,0.152,4.976-1.36,6.96
		c-1.52,1.976-3.872,3.144-6.36,3.144h-16v24h14.848C411.728,361.6,448,295.976,448,224C448,109.304,354.688,16,240,16z M72,208H56
		v-16h16V208z M96,296H80v-16h16V296z M96,136H80v-16h16V136z M120,240h-16v-16h16V240z M136,184h-16v-16h16V184z M152,96h-16V80h16
		V96z M176,208h-16v-16h16V208z M192,152h-16v-16h16V152z M216,256h-16v-16h16V256z M224,48h-16V32h16V48z M232,112V96h16v16H232z
		 M240,176v-16h16v16H240z M272,224h-16v-16h16V224z M328,200h-16v-16h16V200z M304,112V96h16v16H304z M384,224v16h-16v-16H384z
		 M368,168v-16h16v16H368z M400,288h-16v-16h16V288z M416,224c0-97.048-78.952-176-176-176V32c105.864,0,192,86.136,192,192H416z"/>
	<polygon style="fill:#F8EED1;" points="136,346.808 136,400 152,400 152,384 168,384 168,400 184,400 184,346.808 160,316.808 	"/>
</g>
<g>
	<path style="fill:#E14A3B;" d="M353.136,416H272h-80h-64h-1.144H120c-13.232,0-24,10.768-24,24s10.768,24,24,24h240
		c13.232,0,24-10.768,24-24s-10.768-24-24-24H353.136z"/>
	<polygon style="fill:#E14A3B;" points="176.648,312 195.848,336 255.352,336 236.152,312 	"/>
</g>
<rect x="200" y="352" style="fill:#BFD7C2;" width="64" height="48"/>
<g>
	<path style="fill:#593F27;" d="M464,224C464,100.488,363.512,0,240,0S16,100.488,16,224c0,71.264,33.088,136.648,89.336,178.872
		C90.528,408.744,80,423.128,80,440c0,22.056,17.944,40,40,40h240c22.056,0,40-17.944,40-40c0-16.872-10.528-31.256-25.336-37.128
		C430.912,360.648,464,295.264,464,224z M200,352h64v48h-64V352z M195.848,336l-19.2-24h59.512l19.2,24H195.848z M184,346.808V400
		h-16v-16h-16v16h-16v-53.192l24-30L184,346.808z M384,440c0,13.232-10.768,24-24,24H120c-13.232,0-24-10.768-24-24s10.768-24,24-24
		h6.856H128h64h80h81.144H360C373.232,416,384,426.768,384,440z M350.848,400H336v-24h16c2.488,0,4.84-1.168,6.36-3.144
		c1.512-1.984,2.016-4.56,1.36-6.96l-24-88c-0.952-3.48-4.112-5.896-7.72-5.896s-6.768,2.416-7.72,5.896l-24,88
		c-0.656,2.4-0.152,4.976,1.36,6.96c1.512,1.976,3.864,3.144,6.36,3.144h16v24h-40v-56c0-1.824-0.616-3.576-1.752-5l-32-40
		c-1.52-1.896-3.816-3-6.248-3h-80v0.152c-2.368,0-4.728,0.952-6.248,2.848l-32,40c-1.136,1.424-1.752,3.176-1.752,5v49.824
		C64.68,354.792,32,292.28,32,224c0-114.696,93.304-208,208-208s208,93.304,208,208C448,295.976,411.728,361.6,350.848,400z
		 M314.472,360L328,310.408L341.528,360H314.472z"/>
	<rect x="104" y="224" style="fill:#593F27;" width="16" height="16"/>
	<rect x="80" y="280" style="fill:#593F27;" width="16" height="16"/>
	<rect x="56" y="192" style="fill:#593F27;" width="16" height="16"/>
	<rect x="160" y="192" style="fill:#593F27;" width="16" height="16"/>
	<rect x="200" y="240" style="fill:#593F27;" width="16" height="16"/>
	<rect x="256" y="208" style="fill:#593F27;" width="16" height="16"/>
	<rect x="312" y="184" style="fill:#593F27;" width="16" height="16"/>
	<rect x="304" y="96" style="fill:#593F27;" width="16" height="16"/>
	<rect x="368" y="152" style="fill:#593F27;" width="16" height="16"/>
	<rect x="80" y="120" style="fill:#593F27;" width="16" height="16"/>
	<rect x="120" y="168" style="fill:#593F27;" width="16" height="16"/>
	<rect x="240" y="160" style="fill:#593F27;" width="16" height="16"/>
	<rect x="384" y="272" style="fill:#593F27;" width="16" height="16"/>
	<rect x="368" y="224" style="fill:#593F27;" width="16" height="16"/>
	<rect x="232" y="96" style="fill:#593F27;" width="16" height="16"/>
	<rect x="176" y="136" style="fill:#593F27;" width="16" height="16"/>
	<rect x="136" y="80" style="fill:#593F27;" width="16" height="16"/>
	<rect x="208" y="32" style="fill:#593F27;" width="16" height="16"/>
	<path style="fill:#593F27;" d="M240,32v16c97.048,0,176,78.952,176,176h16C432,118.136,345.864,32,240,32z"/>
</g>
<g>
</g>
<g>
</g>
<g>
</g>
<g>
</g>
<g>
</g>
<g>
</g>
<g>
</g>
<g>
</g>
<g>
</g>
<g>
</g>
<g>
</g>
<g>
</g>
<g>
</g>
<g>
</g>
<g>
</g>
</svg>
